<svg id="레이어_1" data-name="레이어 1" xmlns="http://www.w3.org/2000/svg" viewBox="0 0 1080 1080"><defs><style>.cls-1{fill:#005743;}.cls-2{fill:#fff;}</style></defs><circle class="cls-1" cx="540" cy="540" r="540"/><path class="cls-2" d="M358,293.3c-31.47,27.91-47.34,67.36-47.34,117.27,0,71.32,49.11,108.66,70.06,124.6,2.36,1.9,5.68,4.26,6.55,5.15l3,2.77c13,11.94,37.18,34.08,37.18,61.87,0,48-53.81,102-80,118.77H438.9c37.64-39.63,56.8-79.52,56.8-118.77,0-57.67-41.5-95.82-59.25-112.1l-2.59-2.41c-3.46-3.22-7.33-6.17-11.81-9.58-22.72-17.28-43.17-35.69-43.17-70.3,0-29.86,7.93-51.46,24.25-66.08s53.15-18.82,85.39-19.19V257.63C444.09,258.69,388.67,266.07,358,293.3Z"/><path class="cls-2" d="M601.5,824H533.34V256.15l33.94-.15h.42c11.11,0,93,1.76,143.74,52.29,24.77,24.62,37.87,57.41,37.87,94.67.26,19.77-5.25,50.82-23.5,76.15,21.47,21.38,43.55,55.19,43.55,103.91,0,85.65-81.41,140.1-167.92,149.46Zm25.2-337.22c59.77-27.83,54.41-83.1,54.41-83.1v-.42h0c0-20.18-5.24-49-50.55-66.85a171.58,171.58,0,0,0-29.06-8.33V663.77c23.93-3.54,46.5-11.74,64.37-23.65,16.15-10.77,35.39-29.42,35.39-57.07a74.85,74.85,0,0,0-22.44-54.41C663.79,513.59,626.7,486.78,626.7,486.78Z"/></svg>