<svg id="레이어_1" data-name="레이어 1" xmlns="http://www.w3.org/2000/svg" viewBox="0 0 1080 1080"><defs><style>.cls-1{fill:#23429f;}.cls-2{fill:#fff;}</style></defs><path class="cls-1" d="M515.53.57C217.62,14-13,266.4.57,564.37s265.91,528.47,563.86,515.07,528.53-266,515-563.89S813.54-13,515.53.57Z"/><path class="cls-2" d="M620,427.26l-66.64,44.11,20.8,14-43.58,28.84L482.71,482l110.23-73-57.29-38.64L285.29,536.05,447.75,645.63,631.46,524l31.39,21.18L479.14,666.81l57.3,38.64,250.35-165.7ZM443.43,571.93l-47.87-32.3,45.29-30L488.72,542Zm42,94.74L665.86,547.24l3.27-2.16-3-2L559.65,471.23l60.1-39.78L780.51,539.89,536.7,701.25Z"/><path class="cls-2" d="M537.08,283.39,156,535.63l386.92,261L924,544.37ZM218.84,534.24,534.42,325.37,861.16,545.76,545.58,754.63Z"/></svg>