<svg id="레이어_1" data-name="레이어 1" xmlns="http://www.w3.org/2000/svg" viewBox="0 0 1080 1080"><defs><style>.cls-1{fill:#003e99;}.cls-2{fill:#61ed00;}</style></defs><path class="cls-1" d="M515.53.57C217.64,14-13,266.4.57,564.37s265.91,528.47,563.86,515.07,528.53-266,515-563.89S813.54-13,515.53.57Z"/><path class="cls-2" d="M790.32,425.27c-28.08-28.54-74.73-23.57-102.21,5.5-35.73,37.52-63.5,51.54-96.64,50.14-46.2-2-69.12-37.78-92.73-82.86C474.08,351,436.1,324.72,388.89,324.72c-74.33,0-118.8,60.2-118.8,127.31,0,103.27,72.62,165,122.88,191,41.75,21.77,88.21,30.84,129.6,31.88a390.4,390.4,0,0,1-17.71,80.35h84.82C581.3,732.2,573.87,697,571.6,672.2,696.15,656,755.35,599.45,787.73,545.62c14.54-23.76,22.29-48.21,22.2-70.24-.1-19.31-6.26-36.9-19.67-50.11M389.43,489.85a43.52,43.52,0,1,1,40.48-46.36c0,.07,0,.15,0,.22a43.57,43.57,0,0,1-40.5,46.14"/></svg>