<svg id="레이어_1" data-name="레이어 1" xmlns="http://www.w3.org/2000/svg" viewBox="0 0 1080 1080"><defs><style>.cls-1{fill:#001871;}.cls-2{fill:#fff;}</style></defs><path class="cls-1" d="M515.53.57C217.62,14-13,266.4.57,564.37s265.91,528.47,563.86,515.07,528.53-266,515-563.89S813.54-13,515.53.57Z"/><path class="cls-2" d="M864,714.76V365.24H216V714.76H864Zm-30-30H246V395.19h588.1Z"/><path class="cls-2" d="M540,440.78V639.22H510.05V440.78Z"/><path class="cls-2" d="M693.77,535.89h82v6.55q0,23.13-5.27,39.59a84.28,84.28,0,0,1-17.35,29.82q-27.63,31.1-70.3,31.1-41.64,0-71.33-30.08T582,540.39q0-43.18,30.07-73.26t73.52-30.21q24,0,43.44,9.47t37.91,30.76l-21.33,20.44q-24.42-32.52-59.51-32.52-31.48,0-52.82,21.72-21.35,21.33-21.34,53.47,0,33.15,23.78,54.62,22.23,19.92,48.2,19.92,22.1,0,39.71-14.87T743.26,564H693.77Z"/><path class="cls-2" d="M389.79,440.78H378.38L286,639.22h32.26l22.1-48.2h85l20.82,48.2h32.77Zm-37,122.1,30.84-67.48,29.44,67.48Z"/></svg>