<svg id="레이어_1" data-name="레이어 1" xmlns="http://www.w3.org/2000/svg" viewBox="0 0 1080 1080"><defs><style>.cls-1{fill:#005ea1;}.cls-2{fill:#fff;}.cls-3{fill:#ee303c;}</style></defs><path class="cls-1" d="M515.53.57C217.62,14-13,266.4.57,564.37s265.91,528.47,563.86,515.07,528.53-266,515-563.89S813.54-13,515.53.57Z"/><path class="cls-2" d="M336.08,650.47c-4.71,25.77,8.48,34,31.38,34,16.22,0,34.43-6.13,38.08-22.4,4.32-19.29-24.34-23-52.16-31.9-27.5-8.88-55.3-23-46.2-63.18,10.8-47.85,60.47-66.57,99.35-66.57,41,0,77.76,21.16,66.86,70.58H419.56c5.38-19.93-10.8-26.39-27.35-26.39-11.6,0-27,4.32-30.24,18.7-3.82,16.87,25.32,20,53.4,28.86S470,615.8,461,655.37c-12.61,55.49-61.23,73.31-106.7,73.31-47.52,0-84.5-22.1-72.1-78.21Z"/><polygon class="cls-2" points="708.8 505.08 762.67 505.08 713.04 724.06 659.14 724.06 708.8 505.08"/><path class="cls-2" d="M512.48,505.08h96.64c35.79-.61,72.66,9.18,62.29,54.91-4.42,19.61-19.07,35.59-37.23,44.15,20.49,6.73,29.52,27,23.88,51.84-11.81,52.14-51.62,68.08-95.94,68.08H462.76Zm34.32,86.18h41.69c9.29,0,23.2-5.23,26.74-20.86s-5.89-21.17-17.28-21.17H556.33ZM527,678.38h43.2c17.11,0,30.41-6.48,34.56-24.54,4.32-19.33-6.91-25.77-23.13-25.77h-43.2Z"/><path class="cls-3" d="M837.93,417.1C808.14,338,637.74,329,457.38,396.93c-128.63,48.45-227.55,123-263,190.44,48.95-51.12,128-101.34,223.39-137.31,180.38-67.95,350.76-58.9,380.52,20.2,8.64,22.68,4.6,48.66-9.63,75.81,43.59-45.51,63.29-91.71,49.25-129"/></svg>