<svg id="레이어_1" data-name="레이어 1" xmlns="http://www.w3.org/2000/svg" viewBox="0 0 1080 1080"><defs><style>.cls-1{fill:#e10f0e;}.cls-2{fill:#fff;}</style></defs><path class="cls-1" d="M515.53.57C217.62,14-13,266.4.57,564.37s265.91,528.47,563.86,515.07,528.53-266,515-563.89S813.54-13,515.53.57Z"/><path id="path53651" class="cls-2" d="M768.67,427.78H705.13l-75,176.36V519H509.22v49.83h60.42a59.74,59.74,0,1,1-3.44-63.32l36.38-44.35A115.84,115.84,0,0,0,413.23,488.7c-2.67-14.33-8.91-26.33-18.66-35.84-15.79-16.11-40.16-24.35-72.38-24.43H216V651.65h66.13V579.94l68.54,71.71h80.58l-66.6-69.5c11.23-4.07,22.46-9.92,29.92-17.56a65.6,65.6,0,0,0,7.82-9.21,115.88,115.88,0,0,0,178.18,82.09v14.16H681.38l13.83-32.54h83.44l13.88,32.67H864L768.67,427.81Zm-420.59,80c0,14.37-10.61,22.65-29.14,22.65H282.13V484.48h36.49c13.44,0,29.46,3.92,29.46,22.62v.66Zm366.67,60.92,22.18-56,22.66,56Z"/></svg>