<svg id="레이어_1" data-name="레이어 1" xmlns="http://www.w3.org/2000/svg" viewBox="0 0 1080 1080"><defs><style>.cls-1{fill:#007bc5;}.cls-2{fill:#fff;}.cls-3{fill:#f39b00;}.cls-4{fill:#4ab034;}</style></defs><path class="cls-1" d="M515.53.57C217.62,14-13,266.4.57,564.37s265.91,528.47,563.86,515.07,528.53-266,515-563.89S813.54-13,515.53.57Z"/><path class="cls-2" d="M454.09,389.37c10.7,0,80.29,30.73,80.29,141,0,52.71-17.72,96.66-28.23,96.66-4.62,0-6.36-4.6-6.36-13.48,0-19.53,6.88-36.79,6.88-78.46,0-80.46-33.13-112.93-48-131.2-4.39-5.4-7.68-8.92-7.68-12.1,0-1.3.91-2.46,3.07-2.46m175.37,2.46c0,3.18-3.32,6.7-7.68,12.1-14.87,18.27-48,50.74-48,131.2,0,41.67,6.86,58.93,6.86,78.46,0,8.88-1.74,13.48-6.37,13.48-10.46,0-28.23-44-28.23-96.66,0-110.31,69.61-141,80.34-141,2.12,0,3.05,1.16,3.05,2.46"/><path class="cls-3" d="M514.85,411.45c0,14.39,11.32,26.09,25.38,26.09s25.42-11.7,25.42-26.09-11.38-26.09-25.42-26.09S514.85,397,514.85,411.45"/><path class="cls-4" d="M408.25,370.25c-13.27-6-23.22-18.06-24.84-29.74,9.82-6.47,25.42-7,38.73-1,13.9,6.29,17.12,16.91,17.21,26.27-7,6.14-17.15,10.73-31.1,4.44M446.36,300c-8.54-13.11-10.55-29.74-5.24-41.23,12.63-.15,27,8.41,35.58,21.53,8.9,13.76,5.68,25.26.33,33.77-10,1.44-21.78-.29-30.67-14.07m19.75,69.56c-10.53-8.94-16.44-22.46-14.86-33.56,10.65-3.33,25,.28,35.51,9.21,11,9.39,11.24,19.87,8.86,28.44-8,3.71-18.46,5.28-29.51-4.09M498.36,336c-4.53-14.63-2-30.86,6.11-40.3,12,3.21,23.22,15.19,27.77,29.85,4.74,15.36-1.36,25.32-8.72,31.92-9.72-1.3-20.4-6.08-25.16-21.47m-55.5,107c-10.5,2.08-21.58-.93-27.55-7.24,3.16-8.09,12.33-15,22.84-17.05,11-2.15,17.45,2.85,21.48,8.43-1.63,6.69-5.75,13.72-16.77,15.86m-27.77-31.07c-11.93-1.28-22.83-8.16-27.11-16.92,6-7.61,18.18-12,30.13-10.73,12.53,1.38,17.83,8.87,20.3,16.17-4,6.67-10.77,12.84-23.32,11.48m-1-88.79c-9.38-7.95-14.63-20-13.25-29.84,9.47-3,22.22.25,31.59,8.18,9.81,8.32,10,17.67,7.9,25.28-7.19,3.32-16.42,4.7-26.24-3.62M478,260c-3.81-12.2-1.64-25.74,5.06-33.61,10,2.71,19.39,12.69,23.19,24.9,4,12.81-1.18,21.08-7.26,26.6-8.14-1.09-17-5.08-21-17.89M320.87,577a.57.57,0,0,0,.64.57,8.33,8.33,0,0,0,1.85-.57c37.55-13.48,93-30,170.77-35a62.81,62.81,0,0,0,.55-6.82,101.08,101.08,0,0,0-.83-12.51c-79.72,7.31-134.73,30.44-170.87,52.64-1.47.92-2.11,1.13-2.11,1.72M641.13,365.81c.06-9.36,3.3-20,17.2-26.27,13.3-6,28.86-5.5,38.72,1-1.63,11.68-11.54,23.74-24.81,29.74-14,6.29-24.07,1.7-31.11-4.44m-37.69-51.72c-5.34-8.51-8.58-20,.36-33.77,8.52-13.12,22.89-21.68,35.56-21.53,5.3,11.49,3.31,28.12-5.23,41.23-8.94,13.78-20.74,15.51-30.69,14.07m-18.62,59.58c-2.35-8.57-2.17-19.05,8.88-28.44,10.54-8.93,24.86-12.54,35.54-9.21,1.56,11.1-4.38,24.62-14.9,33.56-11,9.37-21.47,7.8-29.52,4.09M556.9,357.42c-7.32-6.6-13.41-16.56-8.68-31.92,4.51-14.66,15.8-26.64,27.79-29.85,8.08,9.44,10.64,25.67,6.1,40.3-4.76,15.39-15.4,20.17-25.21,21.47m64,69.7c4-5.58,10.44-10.58,21.47-8.43,10.52,2,19.64,9,22.82,17.05-5.94,6.31-17,9.32-27.54,7.24-11-2.14-15.15-9.17-16.75-15.86M642,400.43c2.51-7.3,7.79-14.79,20.34-16.17,12-1.31,24.07,3.12,30.09,10.73-4.26,8.76-15.17,15.64-27.11,16.92C652.81,413.27,646,407.1,642,400.43m-1.84-73.69c-2.11-7.61-1.94-17,7.89-25.28,9.39-7.93,22.11-11.17,31.6-8.18,1.37,9.85-3.86,21.89-13.26,29.84-9.8,8.32-19.07,6.94-26.23,3.62m-58.7-48.85c-6.09-5.52-11.2-13.79-7.24-26.6,3.78-12.21,13.16-22.19,23.15-24.9,6.74,7.87,8.86,21.41,5.09,33.61-4,12.81-12.86,16.8-21,17.89m176,297.37c-36.14-22.2-91.15-45.33-170.85-52.64a95.66,95.66,0,0,0-.85,12.51,64.32,64.32,0,0,0,.53,6.82c77.8,5,133.22,21.55,170.78,35a8.87,8.87,0,0,0,1.86.57.58.58,0,0,0,.64-.57c0-.59-.64-.8-2.11-1.72M540.24,290.75c-10.33-4.83-20.51-13.73-20.51-32.32,0-17.72,8.39-34.79,20.51-42.43,12.13,7.64,20.5,24.71,20.5,42.43,0,18.59-10.16,27.49-20.5,32.32"/><path class="cls-2" d="M401,672.75a16.76,16.76,0,1,0,16.74-16.43A16.59,16.59,0,0,0,401,672.75m130.62,86.5c0,25.93-10.12,36.74-24.81,36.74s-23.09-12.55-23.09-34.57c0-22.48,12.88-41.08,36.7-41.08a47.93,47.93,0,0,1,11.2,1.18ZM533,801.79v8.43c0,23.11-14.23,32.12-31.91,32.12a87.68,87.68,0,0,1-31.29-6.08v22.86A121.21,121.21,0,0,0,504.14,864c32.66,0,54.5-13.49,54.5-59.74V704.54a151.17,151.17,0,0,0-37.19-5.12c-45.84,0-65.56,30.71-65.56,63.94,0,30.54,15.4,54.53,44.85,54.53,19.39,0,28.74-11.72,31.79-16.1ZM377.15,787.7c-7.35,3.42-19.16,5.72-30.54,5.72-31.08,0-54-22.24-54-56.11,0-33.63,22.71-56.16,54-56.16,15.48,0,26.52,3.8,30.54,5.72V662.65c-6.79-2.51-17.84-5-33.41-5-48.22,0-80.62,33.33-80.62,79.71,0,43.84,29.81,79.67,80.62,79.67,14.9,0,26.15-2.34,33.41-5.07Zm409.28-28.45c0,25.93-10.15,36.74-24.82,36.74-14.83,0-23.15-12.55-23.15-34.57,0-22.48,12.94-41.08,36.71-41.08a49.17,49.17,0,0,1,11.26,1.18Zm30.45,56.1c-.86-6.34-3.42-23-3.42-37.34V704.54a151.67,151.67,0,0,0-37.18-5.12c-45.87,0-65.55,30.71-65.55,63.94,0,30.54,15.32,54.53,44.8,54.53,21.49,0,31.15-13.93,34.8-21.35H791c.27,3.51,1.24,15.48,1.56,18.81ZM431.24,702.29H404.17V815.35h27.07Zm158,113.06V737.14c0-10.5-1-30.62-1.23-35.19h24.29l1.16,15.92H614c2.83-4.47,11.93-18.45,33.13-18.45,25.61,0,39.82,18.79,39.82,42.24v73.69h-27V747c0-14.43-8-25.29-21.79-25.29-14.19,0-21.77,11.5-21.77,25.29v68.34Z"/></svg>