<svg id="레이어_1" data-name="레이어 1" xmlns="http://www.w3.org/2000/svg" xmlns:xlink="http://www.w3.org/1999/xlink" viewBox="0 0 1080 1080"><defs><style>.cls-1{fill:none;}.cls-2{fill:#00008f;}.cls-3{clip-path:url(#clip-path);}.cls-4{fill:#ff1721;}.cls-5{fill:#fff;}</style><clipPath id="clip-path"><circle class="cls-1" cx="540" cy="540" r="540"/></clipPath></defs><circle class="cls-2" cx="540" cy="540" r="540"/><g class="cls-3"><polygon id="switch" class="cls-4" points="595.48 535.7 646.66 535.7 985.61 95.57 935.55 95.57 595.48 535.7"/><path id="axa" class="cls-5" d="M775.37,732.11c15.53,43.46,47.54,156.55,60.27,165.56h-84A139.86,139.86,0,0,0,747.66,868c-3.62-12.93-34-110.72-34-110.72H580.16l-21,29.75S584.38,866,586,869.83c2.71,7,14.75,27.84,14.75,27.84H520.17s-2.09-12-2.87-17.07c-.63-4.05-7.63-26.25-7.63-26.25s-18.26,20-23.23,29.28-7.25,14-7.25,14h-63s-2.1-12-2.89-17.07c-.61-4.05-8.32-28-8.32-28S387.35,874,382.32,883.24s-7.13,14.43-7.13,14.43H312.87s17.61-16.76,23.77-24C347,861.51,385.69,811,385.69,811L370.18,757.3H237.71s-75.53,99.25-78.5,102.32-25,34.62-25.52,38H94.39v-25a19.93,19.93,0,0,1,1.55-1.5c1.21-.89,57.26-70.47,108.75-139.07,46.27-59.83,89.69-118,93.49-123.55,9.23-13.4,22.52-42.34,22.52-42.34h68.49s2.12,26.62,4.11,33.08c1.78,5.71,43.51,142.62,44.49,144.09l23.07-29.5-39.44-121.4s-9.24-22.85-12.25-26.27h80A69.77,69.77,0,0,0,491.78,588c3.25,10,20.4,71.89,20.4,71.89s54.56-68.39,57.76-73.3a44.29,44.29,0,0,0,6.73-20.34h66.66s-12.2,8.92-33.59,36c-7.18,9.1-77.57,98.56-77.57,98.56s6.14,20.94,9.13,31.36c.82,3,1.39,5,1.39,5.23s1.55-1.81,4.22-5.23c18.16-23,100.77-131.33,105.77-140.61,4-7.49,10-16,13.46-25.28h65s1.51,19.42,3.49,24.79Zm-99-102.53c-9.55,20.54-65.75,89-65.75,89h89s-17.25-53.13-20.26-65.11a94.62,94.62,0,0,1-1.75-23.27C677.66,629.07,677.46,627.3,676.41,629.58Zm-342,0c-9.55,20.54-65.75,89-65.75,89h89s-17.23-53.13-20.24-65.11a94.62,94.62,0,0,1-1.75-23.27C335.69,629.07,335.47,627.3,334.43,629.58ZM468.43,837l24.5-33.65c-2.25-2.43-16.05-44.28-16.05-44.28l-23.69,30.74Z"/></g></svg>