<svg id="레이어_1" data-name="레이어 1" xmlns="http://www.w3.org/2000/svg" viewBox="0 0 1080 1080"><defs><style>.cls-1{fill:#007d4f;}.cls-2{fill:#fff;}</style></defs><path class="cls-1" d="M515.53.57C217.62,14-13,266.4.57,564.37s265.91,528.47,563.86,515.07,528.53-266,515-563.89S813.54-13,515.53.57Z"/><path class="cls-2" d="M871.81,258.55c-32.1,2.86-50,3.11-67.28,8.5-43.83-26.8-134.25-54.44-208.22-60.2,23.25,9.76,116.68,60.37,128.23,76.3-49.79,6.73-144.1,35-191.67,60.38,54.64-12.1,131.19-18.44,183.86-21.23-20.59,30.21-32.15,45.57-65.43,81.67,57.14-34.19,73.24-36.79,125.77-67.68,20.08,29.46,24.77,97.25,25.39,150.92,17.21-34,38.06-162.29,29.33-185.62C863.28,280.71,863.63,272.59,871.81,258.55Z"/><path class="cls-2" d="M392.36,796.6c-30.19-11.2-51.93-24.23-75.87-46.62,7.17-19.78,15.34-35.23,28.69-55-24.55,3.66-42.64,6.43-63.79,10.43-17.22-30.12-25-59.19-33.79-99.67-4.69,42.9-6.47,73.53-.42,107.66-19.41,5.39-33.16,10.1-49.13,17.3,22.39,13.7,40.46,24.24,65.44,35.89,13.44,28.8,27.32,48.27,49.85,70.47-5.28-18.92-6.68-33.95-4.51-53.8C336.75,791.36,360.65,795.63,392.36,796.6Z"/><path class="cls-2" d="M588,465.91s-62.43-40-140.25-50.5c2.95-10.58,13.86-33.35,23.26-45.56-13.89,2.06-54.22,19.73-80.78,40.7,0,0-18-1.69-47.81-.84-29.75,1.37-68.48,8.57-83.57,14.73,29.07,1.29,68.83,8.95,84,24.31,0,0-44.06,39.56-87.47,126.52,0,0,79-74.28,113.3-92.64,0,0,17.89,59.77,30.27,89.63,0,0,11-69.07,29.36-109.28,0,0,5.19-3,30.41-5.36C484.05,455.35,519.91,453.85,588,465.91Z"/><path class="cls-2" d="M553.51,742.69A639.65,639.65,0,0,1,512.72,793c-26.17,7.35-47.07,10.08-72.61,10.08a181.07,181.07,0,0,0,47.21,16.35,329.26,329.26,0,0,1-46.05,35.43c26.62-6.3,61.59-17.59,87.64-33,13.6.53,26.32-.35,35.65-2.2a200.52,200.52,0,0,1-5.9-24c24.53-19,42.33-36.19,62.73-56.85-21.72,15.16-40.46,26.47-65.59,38.35C554.72,765.55,554.1,755.74,553.51,742.69Z"/></svg>