<svg id="레이어_1" data-name="레이어 1" xmlns="http://www.w3.org/2000/svg" viewBox="0 0 1080 1080"><defs><style>.cls-1{fill:#0f3178;}.cls-2{fill:#fff;}</style></defs><circle class="cls-1" cx="540" cy="540" r="540"/><path class="cls-2" d="M790.15,216h0L379.08,407.64c-61.21,28.53-101.15,106.92-89.23,175h0L700.92,391.07C762.13,362.53,802.07,284.15,790.15,216Z"/><path class="cls-2" d="M660.05,464.12l-2.83-16.2L389.86,572.55c-48.56,22.64-80.25,84.82-70.78,138.89l2.85,16.18L589.27,603C637.83,580.35,669.6,518.18,660.05,464.12Z"/><path class="cls-2" d="M538.77,663.12h0L426.45,715.5c-51.84,24.21-85.86,90.72-75.73,148.61h0L463,811.73C515,787.41,548.9,720.86,538.77,663.12Z"/></svg>