<svg id="레이어_1" data-name="레이어 1" xmlns="http://www.w3.org/2000/svg" viewBox="0 0 1080 1080"><defs><style>.cls-1{fill:#2e3786;}.cls-2{fill:#fff;}</style></defs><path class="cls-1" d="M515.53.57C217.62,14-13,266.4.57,564.37s265.91,528.47,563.86,515.07,528.53-266,515-563.89S813.54-13,515.53.57Z"/><path class="cls-2" d="M539.27,527.48h77.52V465.31H539.27V381.4L419.32,527.48h60v115a56.31,56.31,0,0,0,56.31,56.32h84.27v-60H539.27Z"/><path class="cls-2" d="M807.68,463.24H717V341.18l-60,62.16V642.5a56.31,56.31,0,0,0,56.32,56.32h94.34A56.31,56.31,0,0,0,864,642.5v-123A56.31,56.31,0,0,0,807.68,463.24ZM804,622.76a16.1,16.1,0,0,1-16.09,16.09H733.08A16.1,16.1,0,0,1,717,622.76V523.21h71A16.09,16.09,0,0,1,804,539.3Z"/><polygon class="cls-2" points="444.19 445.76 362.27 445.76 292.22 527.31 275.97 527.31 275.97 341.18 216 403.34 216 698.82 275.97 698.82 275.97 587.28 289.56 587.28 375.44 698.82 457.35 698.82 348.38 557.3 444.19 445.76"/></svg>