<svg id="레이어_1" data-name="레이어 1" xmlns="http://www.w3.org/2000/svg" viewBox="0 0 1080 1080"><defs><style>.cls-1{fill:#a71e32;}.cls-2{fill:#fff;}</style></defs><path class="cls-1" d="M515.53.57C217.62,14-13,266.4.57,564.37s265.91,528.47,563.86,515.07,528.53-266,515-563.89S813.54-13,515.53.57Z"/><path class="cls-2" d="M540,216c-178.94,0-324,145.06-324,324S361.06,864,540,864,864,718.94,864,540,718.94,216,540,216ZM282.12,540c0-131,98.22-239.2,224.82-255.51V407.18H437.89a56.58,56.58,0,0,0-56.58,56.59V616.23a56.59,56.59,0,0,0,56.58,56.59h69.05V795.51C380.34,779.2,282.12,671,282.12,540Zm224.82,66.7H447.43V473.3h59.51Zm66.12-133.4h59.51V606.7H573.06Zm0,322.21V672.82h69.05a56.59,56.59,0,0,0,56.58-56.59V463.77a56.58,56.58,0,0,0-56.58-56.59H573.06V284.49C699.66,300.8,797.88,409,797.88,540S699.66,779.2,573.06,795.51Z"/></svg>