<svg id="레이어_1" data-name="레이어 1" xmlns="http://www.w3.org/2000/svg" viewBox="0 0 1080 1080"><defs><style>.cls-1{fill:#c4161c;}.cls-2{fill:#fff;}</style></defs><path class="cls-1" d="M515.53.57C217.62,14-13,266.4.57,564.37s265.91,528.47,563.86,515.07,528.53-266,515-563.89S813.54-13,515.53.57Z"/><polygon class="cls-2" points="370.68 514.77 470.25 514.77 470.25 565.23 370.68 565.23 370.68 713.82 527.27 713.82 527.27 663.97 420.53 663.97 420.53 615.08 520.09 615.08 520.09 464.92 420.53 464.92 420.53 416.03 527.27 416.03 527.27 366.18 370.68 366.18 370.68 514.77"/><polygon class="cls-2" points="709.32 514.77 709.32 366.18 552.73 366.18 552.73 416.03 659.47 416.03 659.47 464.92 559.91 464.92 559.91 615.08 659.47 615.08 659.47 663.97 552.73 663.97 552.73 713.82 709.32 713.82 709.32 565.23 609.75 565.23 609.75 514.77 709.32 514.77"/><path class="cls-2" d="M540,267.13c150.46,0,272.87,122.41,272.87,272.87S690.46,812.87,540,812.87,267.13,690.46,267.13,540,389.54,267.13,540,267.13M540,216c-178.94,0-324,145.06-324,324S361.06,864,540,864,864,718.94,864,540,718.94,216,540,216Z"/></svg>