<svg id="레이어_1" data-name="레이어 1" xmlns="http://www.w3.org/2000/svg" viewBox="0 0 1080 1080"><defs><style>.cls-1{fill:#001e5a;}.cls-2{fill:#bfbfbf;}.cls-3{fill:#d50982;}</style></defs><path class="cls-1" d="M515.53.57C217.64,14-13,266.4.57,564.37s265.91,528.47,563.86,515.07,528.53-266,515-563.89S813.54-13,515.53.57Z"/><polygon class="cls-2" points="665.19 802.4 515.37 579.09 422.09 579.09 422.09 400.98 308.07 400.98 308.07 802.4 422.09 802.4 422.09 643.69 528.57 802.4 665.19 802.4"/><path class="cls-3" d="M702.22,611.18,772,234.41,408.43,355.88s69.34,16.93,133.9,55.67L396.11,579.92l86,74.81L628.46,486.35C675.81,544.91,702.22,611.18,702.22,611.18Z"/></svg>