<svg id="레이어_1" data-name="레이어 1" xmlns="http://www.w3.org/2000/svg" viewBox="0 0 1080 1080"><defs><style>.cls-1{fill:#0075c2;}.cls-2{fill:#fff;}</style></defs><circle class="cls-1" cx="540" cy="540" r="540"/><path class="cls-2" d="M357.38,581.44l24.5-67.89L396.23,507,340.48,677.68l-39.71,55.66h17.17l66.75-80.16L416.8,528.67l12.38,16.94c-4.79,57.56-2.81,43.39-6.74,75.48l-80,112.25h18.89l78.28-59.43,4.51,1.89-29,57.54h86.74l132.91-88.66,40.55-148.07,98-4.73L735.6,467.36,520.72,431.5c-47.33-50-49-52.77-49-52.77l56.61,4.72-40.86-37.76V307l53,9.42,144.19,83.95,167,45.26C834.72,367.4,733.9,216.48,544.08,216.48,347.23,216.48,216,377.75,216,530.56c0,101.84,34.06,160.29,64.2,203.66,20.57-47.12,60.28-143.33,60.28-143.33ZM238.52,530.56c0-141.5,120.81-293.32,305.56-293.32,129.28,0,236,82.06,273.75,178.21L671.38,374.91,541.27,302.29l-63.92-10.35-29.3,62.22-23.66,12.28-36.6,93.38c0-1.89-25.64,11.31-25.64,11.31S307.54,617.34,280.2,690.85C258.51,652.18,238.52,611.67,238.52,530.56Z"/><polygon class="cls-2" points="595.05 733.33 640.4 733.33 687.42 644.68 678.98 628.63 595.05 733.33"/><polygon class="cls-2" points="715.03 603.17 754.47 528.66 698.97 506.05 693.34 555.05 698.97 563.52 693.34 606.92 715.03 603.17"/><path class="cls-2" d="M542.39,863.52c91.54,0,190.38-40.63,247.83-115.11H293.44C364.13,835.2,462.14,863.52,542.39,863.52Z"/><path class="cls-2" d="M820.63,554.16,799.8,624.83l-69,108.5h72.67c38.85-53.8,56.61-109.41,60.54-164.11Z"/><polygon class="cls-2" points="750.79 644.68 778.13 621.08 808.24 550.35 764.89 532.43 724.31 646.56 696.15 670.09 660.11 733.33 696.15 733.33 750.79 644.68"/></svg>