<svg id="레이어_1" data-name="레이어 1" xmlns="http://www.w3.org/2000/svg" viewBox="0 0 1080 1080"><defs><style>.cls-1{fill:#f60;}.cls-2{fill:#fff;}</style></defs><circle class="cls-1" cx="540" cy="540" r="540"/><path class="cls-2" d="M231.23,510.38V493.92h-102c-15.67,0-23.57,8-23.57,21.07v50c0,13,7.9,21.07,23.57,21.07h102V569.62H123.41V510.38Zm68.06,21.19V493.92H281.91v92.16h17.38V547.77H392.1v38.31h17.38V493.92H392.1v37.65Zm279-37.65v75.7h-91.5v-75.7H469.38V565c0,13,7.89,21.07,23.56,21.07h79.12c15.67,0,23.57-8,23.57-21.07V493.92Zm184.17,92.16c17.11,0,25-7.11,25-19.35v-10.8c0-3.42-1.19-5-3.69-7.11l-11-9.48,11-9.48c2.5-2.1,3.69-3.68,3.69-7.1v-9.48c0-12.25-7.9-19.36-25-19.36H655.52v92.16ZM672.9,509.59h96.76V532H672.9Zm96.76,60.82H672.9v-23h96.76Zm179.69,15.67c17.12,0,25-7.11,25-19.35v-10.8c0-3.42-1.19-5-3.69-7.11l-11.06-9.48,11.06-9.48c2.5-2.1,3.69-3.68,3.69-7.1v-9.48c0-12.25-7.9-19.36-25-19.36H842.46v92.16Zm-89.52-76.49h96.76V532H859.83Zm96.76,60.82H859.83v-23h96.76Z"/></svg>