<svg id="레이어_1" data-name="레이어 1" xmlns="http://www.w3.org/2000/svg" viewBox="0 0 1080 1080"><defs><style>.cls-1{fill:#0699db;}.cls-2{fill:#fff;}</style></defs><path class="cls-1" d="M515.53.57C217.62,14-13,266.4.57,564.37s265.91,528.47,563.86,515.07,528.53-266,515-563.89S813.54-13,515.53.57Z"/><path class="cls-2" d="M496,450.5a114.26,114.26,0,0,0-161.57,0l-167,167c-2.13,2.13,9.31,5.46,20.78,5.46s18.66-3.33,20.79-5.46L355.2,471.29a84.85,84.85,0,1,1,120,120L449,617.5c-2.13,2.13,9.3,5.46,20.78,5.46s18.65-3.33,20.79-5.46h0l5.42-5.42A114.25,114.25,0,0,0,496,450.5Z"/><path class="cls-2" d="M460.66,485.84a64.34,64.34,0,0,0-90.91,0L238.09,617.5h.25c-2.13,2.13,9.31,5.46,20.79,5.46s18.65-3.33,20.78-5.46h-.26L390.53,506.62A34.89,34.89,0,1,1,439.87,556L378.33,617.5c-2.13,2.13,9.31,5.46,20.79,5.46s18.65-3.33,20.78-5.46l40.76-40.76A64.35,64.35,0,0,0,460.66,485.84Z"/><path class="cls-2" d="M425.32,521.17a14.33,14.33,0,0,0-20.24,0L308.75,617.5H309c-2.13,2.13,9.3,5.46,20.78,5.46s17.31-3.33,19.44-5.46l76.09-76.09A14.33,14.33,0,0,0,425.32,521.17Z"/><path class="cls-2" d="M584,450.5a114.26,114.26,0,0,1,161.57,0l167,167c2.13,2.13-9.31,5.46-20.78,5.46s-18.66-3.33-20.79-5.46L724.8,471.29a84.85,84.85,0,0,0-120,120L631,617.5c2.13,2.13-9.3,5.46-20.78,5.46s-18.65-3.33-20.79-5.46h0L584,612.08A114.25,114.25,0,0,1,584,450.5Z"/><path class="cls-2" d="M619.34,485.84a64.34,64.34,0,0,1,90.91,0L841.91,617.5h-.25c2.13,2.13-9.31,5.46-20.79,5.46s-18.65-3.33-20.78-5.46h.26L689.47,506.62A34.89,34.89,0,1,0,640.13,556l61.54,61.54c2.13,2.13-9.31,5.46-20.79,5.46s-18.65-3.33-20.78-5.46l-40.76-40.76A64.35,64.35,0,0,1,619.34,485.84Z"/><path class="cls-2" d="M654.68,521.17a14.33,14.33,0,0,1,20.24,0l96.33,96.33H771c2.13,2.13-9.3,5.46-20.78,5.46s-17.31-3.33-19.44-5.46l-76.09-76.09A14.33,14.33,0,0,1,654.68,521.17Z"/></svg>