<svg id="레이어_1" data-name="레이어 1" xmlns="http://www.w3.org/2000/svg" viewBox="0 0 1080 1080"><defs><style>.cls-1{fill:#00b0a8;}.cls-2{fill:#fff;}</style></defs><circle class="cls-1" cx="540" cy="540" r="540"/><path class="cls-2" d="M864,695.89h-.24v-2.53l-1.44-6.48h-.22v-.63h-.22v-.62h-.21V685h-.24v-.41h-.24v-.65H861l-.26-.88h-.22v-.63l-.71-1.4-.24-.46-.49-.93-.89-1.23-.69-1.4-.48-.71-.69-1-1-1.23-1.16-1.47-.91-1-1.41-1.32-.23-.47h-.46l-.93-1.26h-.43l-7-7.6-.72-.54v-.22l-11.79-10.8-.24-.47h-.45l-.48-.5-5.31-5.4-3.72-3.65-.26-.47-.45-.52H819l-.71-.56-.22-.48-.69-.54H817l-.72-.54-.24-.45-1.16-.87-.91-.39-.45-.28v-.23H813v-.22L810,631l-2.16-2.16v-.41l-.69-.59v-.17l-.45-.11-1.84-2.16h-.48l-.69-1-.47-.11-.46-.71h-.45l-.45-.71h-.48l-.24-.48h-.43L797,618.52l-.67-.52v-.43l-.46-.29v-.43l-.47-.3v-.22l-.48-.28v-.43h-.21l-.72-1.19h-.45l-9-8.85-.26-.48-.93-.34-.21-.48-.93-.39-.22-.45-4-4.13-1-1.21-3-3.08-1.4-1.73h-.46l-.69-1h-.45l-.72-1-.45-.11-.47-.71H769l-3.35-5.14h-.21l-.28-.67-.44-.3V584l-.45-.28L750.08,568h-.21l-.24-.69-.46-.28v-.43l-.47-.28v-.46l-.69-.51v-.44l-.48-.3v-.41l-1.14-1.06v-.43l-1.17-1.06L745,561h-.45l-.69-1.19-1.4-1.1-1.86-2.16h-.46l-.92-1.23h-.46l-.24-.45H738l-.45-.72h-.46l-.24-.47h-.45v-.5h-.24l-.62-.52-.28-.34v-.41l-.46-.33v-.41l-.47-.51v-.44l-.46-.28-.23-.88-.48-.31v-.41H733l-.23-.64-.48-.33v-.41l-.91-.82v-.39l-1-.82v-.43l-1.64-1.56-.21-.69h-.48v-.41h-.45l-3.24-3.13L724,538h-.5l-.22-.48h-.45l-.5-.71-.93-.39-.19-.45-.71-.35v-.21l-1.36-.67v-.22h-.46v-.22l-1.4-.67v-.21l-1.12-.43v-1.58h-.5v-.22l-.67-.13v-.21h-.45v-.22l-.72-.11v-.21h-.43V530l-1.62-.49v-.22l-.67-.13V529l-.93-.17v-.19L709,528.4v-.22l-1.15-.23v-.2l-3.67-.88v-.2l-10.11-1.44v.19l-1.16-.19v.19l-1.15-.19v.19l-.69-.13v.19l-.91-.15v.2l-.93-.15v.21h-.47v.22h-1.36V526l-.46-.1v.21h-.69v.2h-.91v.21l-.69-.13v.2l-1.38.19v.2h-.47v.21h-.91l-.22.39h-.93l-.21.37H680v.21h-.69l-.19.39-.5-.1-.43.56h-.48l-.45.54h-.43l-.69.71h-.48l-24.54,13.8h-1v.24h-.69l-.24.39h-.45v.21l-.91.48-7.54,4.51v.41l-.45.13-.67.72h-.5l-.43.34-13.67,6.33-.67.71-.48.13v.41l-.45.37-.45-.11-.24.39h-.46v.2h-.45v.21l-.69-.15v.22l-1.38.17v.22h-.46v.19l-1.4.2-.2.36h-.92l-.2.39h-.47l-.24.37H615l-.24.39h-.45l-.24.36h-.46l-.23.37-1.13.35h-.47l-1.17-2.34-.24-.88-.45-.3-.26-.89h-.19l-.26-.67-.46-.3v-.41l-.45-.3v-.41l-.71-.57v-.43l-.71-.54v-.43l-.91-.8v-.43h-.26l-.45-.74-4-5.59h-.23l-.48-1.34h-.24v-1.9h-.21v-.41h-.24v-.43h-.22v-.41l-.45-.52v-.41l-.48-.3-1.62-2.64v-.43l-.45-.28v-.41l-.69-.56v-.44l-.91-.8-2.81-4.94h-.19v-.65h-.26l-.24-1.1h-.23v-.39h-.24v-.63h-.24l-.26-.88h-.19v-.41h-.24v-.63l-.48-.32v-.39h-.19v-.43h-.24v-.44l-.47-.49v-.41l-.44-.31-.25-.88h-.24l-.26-.67-.45-.32v-.41l-.67-.57v-.41l-.48-.3v-.41l-.71-.56-.24-.67h-.22L583.68,517l-1.36-2.16h-.24v-.62h-.24v-.63h-.22v-.63h-.21v-.43h-.24v-.62H581v-.44h-.24v-1.66h-.24l-.45-1.36h-.24V508h-.24v-.37h-.24v-.43h-.23l-.48-1.34-.45-.28-.24-.91-.47-.28v-.43h-.22l-.26-.69-.45-.28v-.44l-.69-.54v-.43l-.7-.54v-.43l-1.14-1V499l-4-5.59h-.24l-.26-1.11h-.22l-.21-.86h-.26v-.63h-.24l-.24-.88h-.21l-.26-.91-.46-.28-.49-1.34-.43-.3-.26-.89-.46-.3v-.43l-.69-.54v-.43l-.45-.31v-.43l-.69-.54v-.41l-.93-.8v-.43l-1.17-1.06v-.43l-4-5.57h-.24l-.21-.89h-.24V473H557l-.49-1.34h-.24l-.22-.91-.47-.28V470h-.24v-.41l-.45-.52v-.43h-.24l-.24-.67-.45-.31v-.41l-.5-.3v-.43l-.69-.56v-.44l-.69-.51v-.44l-.93-.79v-.44L546.85,456h-.22l-.45-1.34h-.24v-1.1h-.21v-.43h-.24v-.43h-.24v-.44H545v-.43h-.19v-.41h-.24V451h-.24v-.32h0v-.26h-.22l.22-.57,2.46-5.44.46-.32v-.43l.45-.13v-.63H548v-.45h.21l.24-.82h.24V441h.24l.21-.8h.24l2.42-7.78H552v-.84h.24v-1.06h.25V429.3h.22v-1.23h.24v-1.9h.26v-2.55h.21l1.93-11.06v-.63h.23v-.67h.22l.43-2.87V390.87l-.47-3.26h-.22v-.84h-.22v-.63h-.23v-.64h-.22l-.73-2.9h-.22v-.28h-.26l-.24-1.34h-.23l-.24-.86h-.22l-2.37-7.2h-.22l-.28-1.53h-.22v-.63h-.21v-.64h-.26v-.76h-.52v-.63h-.26v-.43h-.22v-.62h-.23l-.48-1.37h-.24v-.43H547v-.43h-.24V365h-.26v-.41h-.24v-.41l-.45-.52v-.8h-.24l-.23-.67-.48-.3v-.41h-.24l-.3-.78-.45-.26V360l-.69-.54v-.43l-.67-.56-3.74-4.32v-.44l-.45-.3v-.22h-.46l-.93-1.23h-.45l-.71-1h-.46l-.23-.45h-.44l-.23-.48h-.48l-.22-.45h-.47l-.22-.45h-.47l-.24-.48-.95-.95-.22-.45-.92-.39v-.2l-1.39-.67v-.21l-.69-.13v-.11l-.91-.37V345l-.71-.13v-.2h-.45v-.21l-.69-.13v-.22l-.67-.11v-.21l-.67-.13v-.22l-.69-.13v-.22L505.2,338.9v.2l-1.14-.22v.22l-.91-.17v.21l-.93-.19v.23l-.67-.12v.21l-.71-.13v.22l-.65-.13v.21h-1.38v.24h-.45v.24l-.67-.15V340h-.91v.22h-.69v.19l-1.36.16v.21h-.46v.17h-.93l-.21.39h-.91l-.24.39-.45-.11-3.91.76v.22h-.43v.21l-.71-.13v.22H486v.21l-.69-.13v.22h-1v.22l-.67-.13v.19h-.93v.2l-.67-.13-.23.39h-.46v.21H481v.24h-.45l-.46.34h-.47l-.2.35-1.36.17v.22h-.69l-.24.39h-.45l-.24.39H476v.21h-.69l-.24.37h-.48l-.45.56-.43-.11-.91.89h-.45l-.69.71h-.46l-1.81,1.58-.45-.11-.46.56H468v.43l-2,1.32v-.56l-.91.45V353l-.89.47v.41l-.69.28v.44l-.45.1v.44l-.69.3-.2.8-.49.13-.2.58h-.24l-.21.82-.43.13v.41h-.26v.26l-.43.35v.41l-.46.15v.41h-.21v.41l-6.1,8.16v.43l-.9.46v.43l-.46.13v.19l-.47.13v.41l-.69.33-.22.58-.45.11v.43l-.48.13v.41l-.69.3-.21.8-.46.13-.21.82-.46.11-.21.82-.48.11v.43l-.45.33v.43H446v.41h-.24v.43h-.24V378h-.25l-.42,1.19h-.23l-.24,1h-.22l-.21.8h-.22v.65h-.24v.43h-.23l-.46,1.82h-.19v.41h-.26v.86h-.22v.63H442v.62h-.24v.22h-.22l-2.93,4.08v.41l-.7.33v.41l-.64.28v.43l-.46.13v.43l-.45.11v.43l-.48.13v.41l-.45.13v.43h-.45l-.22.82-.45.13v.44h-.22v.43h-.24V397l-.45.34v.41l-.5.13v.44h-.23v.43h-.24v.65l-.41.13v.62h-.26v.43h-.2l-.23.8h-.22V402h-.22v.43h-.21v.63h-.24v.43h-.22v.63h-.25v.43h-.24v.89h-.22v.64h-.24v0L425.84,411v.39l-1.14.65v.41l-.65.3v.43l-.47.13-.22.59h-.24v.43l-.45.13v.3l-.48.13v.41l-.45.13v.43h-.45v.46l-.44.1-.21.8-.46.13v.63l-.45.13-.45,1.19H419v.41h-.24v.41H419l-.48,1.16h-.23v.65h-.24v.43h-.24l-.24.82h-.21v.65h-.24v.41h-.24l-.21,1.23h-.24v.44h-.26v.62H416v.65h-.6v.6h-.22v.85h-.21v.62h-.24v.63h-.22v1.06l-2,2.78-.23.61-.89.45v.44l-.69.28.15.67h-.45v.43l-.48.13v.41l-.43.15v.41l-.45.13v.41l-.46.13-.24.8-.45.13-.19.8-.46.13v.41l-.45.34v.43h-.24v.44h-.26v.45H406v.41h-.24v.41h-.24v-.28h-.22v.41h-.23l-.44,1.17h-.21V445h-.24l-.24.8h-.21v.63h-.24v.43h-.22l-.43,1.82h-.24v.43h-.23l-2.68,4.17v.41l-1.38.82v.41l-1.13.63V456l-.91.47v.43l-.47.11-.22.61h-.23V458l-.67.3v.43l-.48.13-.21.8-.67.3v.43h-.48l-.43,1.19-.48.11v.43l-.47.35v.43h-.24v.41H391v.41h0v.41h-.22v.41h-.21V465h-.24v.42h-.24l-.43,1.2h-.26v-.06h-.21l-.22.82h-.22V468h-.23v.43h-.24l-.2,1.23h-.28v.43h-.21l-.24,1.43h-.19V472h-.22l-3.41,3.82v.42l-1.13.62v.41l-1.12.65-.24.8-.69.3v.43l-.67.28-.21.59-.48.15v.39h-.24v.43l-.45.13-.22.8-.69.28-.19.82h-.48v.41l-.47.35v.41H376v.39h-.22v.43h-.23v.43h-.22v.43h-.22v.43h-.26V487h-.23v.43h-.22l-.24.82h-.23v.43l-6,6.48h-.45l-.67.73h-.24v.46l-.45.11-.67.73h-.24v-.41H365l-.45.78h-.45V498l-1.13,1.27-.69.28V500l-.69.28-.21.8-.65.3v.43h-.24v.41l-.45.13-.22.82h-.45l-.24.82-.43.13v.41l-.48.33v.43H358v.43h-.21v.41h-.24v.43h-.21V507h-.22v.41h-.24v.41h-.21l-.44,1.18h-.26v.63h-.23V510h-.24v.63h-.24l-.6.73h-.22l-5.64,7v.43l-.45.13v.19l-.48.13v.41l-1.12.65v.41l-.69.33v.41l-.67.28v.43l-.47.13v.41l-.46.15v-.15l-.45.11v.43l-.43.13v.43h-.26v.43l-.44.13-.23.8h-.46l-.21.84-.46.11v.43l-.45.33v.43h-.22v.45h-.23v.46h-.24v.41h-.24v.43h-.21l-.46,1.19h-.21v.67H339v.43h-.24l-.24.8h-.21l-.44,1-4.73,5h-.47v.09l-.91.48v.43l-1.14.62v.41l-1.15.63v.43l-.69.31v.6l-.67.3v.43l-.45.11v.46h-.48v.45l-.47.13v.41l-.48.13-.19.8-.48.11-.21.82-.46.13-.32.43-9.81,14v.39l-1.14.63v.45l-1.15.63v.41l-.47.13v.3l-.69.3v.43l-.69.31-.22.8-.69.28-.24.8-.43.1-.22.61h-.23l-.46,1.19-.43.13-.45,1.16-.48.15-8.64,8.92-.21.59L295.73,581v.43l-1.15.63v.41l-1.12.62-.26.59-.43.13-.22.82-.93.45v.43l-.43.13v.41l-.48.15-.21.59h-.22l-.21.82-1.84,1.94-.26.2-.39.3-1.94,1.34-.48.56-.45-.11-.24.39H284l-.91.89h-.45l-.46,1.23h-.45l-1.36,1.23h-.45l-2.68,2.87-1.34.78v.45h-.48v.22l-.88.45v.43h-.24l-1.19.63h-.45v.43l-1.36,1.45-1.1,1.25-.5.13-.43.56v.41l-.46.13v.44l-.45.1v.44l-.45.34v.41l-.46.13V608h-.21v.45l-.46.33-.43.54v.43l-6.48,4.69-1.58,1.38h-.71l-.88.67V617h-.22l-1.6,1.6h-.26l-3.37,3.56-5.92,4h-.45l-.22.39h-.47l-.22.37h-.45v-.48h-.67l-.22.39h-.47l-.45.56h-.46l-.45.56h-.46l-.23.37-1.8.69v.43L236,630.46v.43l-.47.35-.45-.11-.22.39-1.6,1v.43l-1.38.57v.43l-.89.47v.41l-1.14.65v.43l-1.15.61v.43l-.69.3v.43l-.67.28-.21.8-.69.31v.43l-.46.13V640l-.45.13-.2.58h-.23l-.46,1.21h-.45v.45H224v.46h-.23v.43l-.46.35V644l-.47.13-.22,1-.45.15-.22,1h-.21v.43h-.22l-.45,1.19h-.24l-.22,1.23h-.21l-.24.8h-.24l-.43,1.83h-.24v.39H219V653h-.19v.65h-.26v.63h-.22l-.19,1.44h-.26v.85h-.22v1.06h-.21l-.2,1.85H217v1.28h-.22v1.27h-.22l-.36,7.73H216l.56,8.13h.24l.24,3h.23v1.25h.26V683h.24v.82H218l.23,2h.24l.24,1.53h.24V688h.21v.63h.24v.84h.22v.41h.21v.84h.24v.44h.22l.26,1.29h.23l.24.91h.24V694h.21l.22.86h.24v.65l.45.28v.6h.22v.41h.24v.44H223v.43h.24v.41h.26l.21.86.48.3.45,1.37.48.28.5,1.36.45.3v.41l.47.3v.41l.46.3v.44h.24l.23.67.46.3v.43l.69.56v.39l.47.33v.38l.93.85v.41l.93.8v.41l1.62,1.57v.44l1.86,1.81,3,3.52h.43l1.21,1.49h.44l.92,1.23h.5l.43.71.48.11.21.46h.48l.45.73h.46l.23.48.67.34v.8h.44l.26.48h.47l.45.73.91.37.24.47,1.38.67.24.46.45.1.48.5h.47v.24h.46v.21h.45v.22h.45l.24.47.69.13v.22H253v.22l.93.39v.21l.67.11V730H255v.21l.91.39v.19l.69.16v.19h.47v.22l1.39.45v.24l.69.11v.21h.45v.22l3,1.19V734l9.18,3.39,4.84,1.1v.22l13.76,1.94v-.21l2.29.21,3.89-.36.9.19v.41l.7.13v-.13l.69.13v-.19l.69.12v-.21l.91.15v-.19h.45v-.22h2.16v-.24l.43.11v-.22h1.38v-.21l1.39-.15v-.22h.43v-.19l.71.13v-.22l1.36-.19v-.2l.48.11v-.24h.93l.23-.39h.44v-.23l.47.1.43-.34h.48l.24-.37h.9l.22-.37h.93l.21-.36h.48l.41-.54h.93l.45-.59h.46l.47-.54h.45l.22-.36h.45l.24-.39.69-.31v.35h.43l.7-.71h.45l13.87-9,.45-.15.45.11v-.22h.48L337,724h.46v-.21h.91v-.22l1.62-.35.19-.38.11-.33.21-.37.7-.32.47.11.43-.56,1.36-.56.69-.11v-.43l2.29-1,.48-.54h.45l.43-.33V718l4.32-3.19,1.15-.63v-.45l.69-.29.22-.6.45.11v-.43l1.12-1.28.69-.3v-.26l.46-.13v-.43h.84l.45-.13v-.41l.44-.56.47-.13v-.41l.48-.13.19-.82.45-.11V707l.91-1.11,5.92-5.87,2-1.27.69-.11L370,698h.45l.22-.58,1.62-1V696l1.57-.95v-.44l.91-.47v-.41l.45-.13v-.26l.46-.13v-.41l.43-.13v-.41l.67-.3v-.41l.47-.15V691l.44-.13v-.41l.47-.13v-.44l.48-.13v-.43h.45l.22-.8.45-.13,4.54-4.45.21-.36h.24l.22-.37h.45V683l.93-.26v-.41h.45v-.24l.91-.46h.24v-.43l1.83-.93L390,680h.45l4.54-4.32.43.1v-.43h.24l.21-.6.95-.48v-.41l.67-.3v-.43l.72-.28.19-.8.71-.31.18-.82.69-.28.21-.8.48-.13.21-.79.46-.13v-.41l.47-.35v-.41H402v-.13h.24l7.23-6.67.24-.35h.45l1.13-1.06.47-.13v-.39l2.51-1.66v-.41l.43-.13v-.22l.45-.1v-.44h.24l.45-.77.46.1v-.41l1.14-1.27.67-.32.22-.8.69-.28.22-.8.45-.13v-.41l.45-.13v-.41l.44-.15.23-.8.46-.13v-.41l.45-.35V648H422v-.41h.21v-.43l.46-.35v-.41l.45-.13v-.43h.19v-.43h.24l.8-1.13h.24v-.6h.21v-.39H425v-.63h.24l.2-.79h.23l.43-1.21.22-.37,3.93-4.95.46-.15V635l.9-.46v-.43l1.15-.63v-.41l.9-.45v-.43l.48-.13v-.43l.67-.31v-.41l.45-.13v-.41l.46-.15v-.41l.45-.13v-.41l.48-.15v-.39l.45-.15.22-.78.45-.13v-.43H438v-.43h.21v-.43l.26,0V626l.45-.13.44-1.17h.21v-.43h.24l.43-1.19h.22v-.65h.23v-.32h.22l.24-.8h.21l.24-1h.22l.24-1.21h.21l.22-.8h.24v-.87H443l.22-.56,3.82-4.32v-.41l1.15-.63v-.19l1.12-.65v-.41l.69-.3.22-.8.45-.13.22-.6.69-.29.21-.79.69-.31.22-.8.45-.13.22-.79.47-.13v-.35l.44-.35V604h.23v-.43h.24v-.43h.24v-.41l.43-.11V602l.46-.13v-.62H456v-.44h.24v-.32h.24l.45-1.14h.24v-.63h.21v-.39h.24l.22-1h.21l.85-1.74h.21v-.44h.22v-.84h.24l3.45-4.19v-.43l1.15-.65v-.41l.9-.48v-.41l.44-.13v-.06l.69-.3v-.41l.69-.28.21-.82.67-.29V585l.48-.13v-.43h.24V584l.45-.13.22-.82.47-.11.22-.6h.23v-.65l.46-.13v-.43l.45-.33v-.41h.22V580h.26v-.41h.21v-.39H472l.45-1.16h.22v-.65h.24v-.43h.21l.22-.8h.24l4.73-6.07.9-.46v-.43l1.62-1v-.41l.91-1.49v-.41l.46-.13-.37-.28.47-.11v-.45l.44-.11v-.43l.67-.31v-.41l.47-.13.22-.58h.23v-.41l.46-.15V562l.45-.11v-.43l.48-.13.43-1.17.45-.13.46-1.21.43-.1.45-1.19h.24v-.41H488l.17.17h.24v-.65h.21v-.43h.22l.24-.8h.21l.59-1.17h.23v-.41h.22v-.64h.22v-.41h.23v-.61H491v-.65h.24l.34-.56h.24v-.15H492v-.86h.21v-.63h.22l.34-.58,2.6-3.52,1.12-1v-.43l.69-.31V543h.24l.24-.6.45-.13v-.41l.67-.3.21-.8.7-.31V540l.45-.13.45-1.18.46-.13v-.41l.45-.35v-.43h.22V537l.45-.13v-.65h.24v-.41l.45-.13v-.63h.22v-.41h.26l.43-1.18H504v-.65h.24l.2-.8h.26v-.63h.23V531h.22v-.63h.26v-.62h.21v-.41h.24l.22-1.23h0l-.65-1h-.24v-.65h0V527h.24l.67,1.73h.15v.13l1.15,1.68V531l.47.31v.43l.45.3v.39l.48.3v.46H509l.25.67.44.3v.43l.93.8v.41l.92.82V537l1.86,1.82.24.69,4.67,8.25.47.28.48,1.36h.23l.22.69.47.28v.43l.46.31v.41l.67.54v.43l.69.54v.43l1.14,1.06v.56l4.45,6.11h.24l.22.91h.23v.65h.22l.86,1.45h.22l.26.88.45.3.24.89h.22v.41l.47.3v.43l.46.31v.41l.47.28v.43l.48.3v.41l.47.3v.44l.56.73v.43L536,573.8v.44l1,.77v.24l1.69,2,2.16,2.89H541l.36.5h.24v.41h.24l.21.89h.24l.26.9.48.29.21.88.48.3v.44l.45.28v.43l.69.54v.45l.71.54v.39l.93.84.24.67.69.54,2.75,3.37h-.13l-3.33.82h-.45v.22h-.48V594h-.47l-.46.35h-.45l-.22.39h-.45l-.24.37h-.43l-.24.36h-.91l-.23.39-.46-.11-.45.56h-.48l-.45.57-.45-.11-.44.56h-.45l-.24.37h-2.74v.19l-.67-.13V598l-.71-.11v.22h-3v.21l-.45-.11v.22l-.7-.13v.22h-.88v.19l-.69-.13v.22h-.91V599l-.71-.11-.2.39h-.45v.22l-.48-.11v.22h-.45l-.45.36-.46-.1-.21.36h-.93v.22h-.69l-.22.37h-.91l-.21.36h-.48l-.45.57h-.48l-.43.54h-.47l-.89.88h-.45l-.69.74h-.48l-.45.32v.43l-1.1.43-.48.54-.45.13v.41h-.67l-.46.35v.41l-.86,0v.43l-1.14.63v.41l-.67.28v.43l-.67.3v.44L509,610l-.21.79-.46.13v.44l-.45.1-.24.83-.45.1v.44h-.24v.41h-.24v.45l-.45.32v.41l-.45.13v.65h-.22l-.22.84h-.26v.63h-.21l-.22.8h-.21v.65h-.22v.41H504l-.65,2.61h-.06v.63h-.22v.65h-.21l-.5,17.82.26,2.57h.24v.84h.21l.28,1.53h.22v.63h.24v.62H504l.47,2.16h.24l.24.89h.23v.67h.24v.43h.24l.22,1.1h.23l.5,1.36h.22v.44h.23v.41h.24v.58l.43.52v.41l.46.32.23.89h.24l.24.67.45.3V658h.24l.24.69.45.28v.43l.69.54v.44l.69.56v.41l.48.3v.22l.45.28v.43l1.15,1.49h.45l1.64,2.16h.48l2,2.51.71.32.48.73H520l.48.72H521l.45.71.48.11.21.45h.5l.22.46.69.34v.22l.93.39.21.45,1.41.69.23.45.91.37v.22h.43v.21l1.41.69v.22l.65.11v.19l.9.41v.22l.67.11v.23h.46V678l.69.11v.21l.47.11v.22l1.6.5v.21l.69.13v.93l2.53.89v.21l1.17.22v.19l.92.2v.21l1.34.26v.2l1.84.34v.22l2.76.49v.22l8.49,1.36v-.19l1.82.32v-.22l1.16.22v-.22l1.15.22v-.19l.93.15v-.22l.9.17v-.19l.91.17v-.21l.91.15,7.56-1.34.22-.39.69.13.21-.37,1.38-.17.22-.39h.91l.24-.39h.88l.48-.56h.45l.22-.39h.47l.45-.56.46.11.45-.59.46.11.9-.88h.46l4.32-1.75v-.2l.69.13v-.21l.69.15v-.24h.47v-.22l.7.13v-.21h.45v-.22l.67.13V677l1.38-.18v-.21H589v-.22l.47.11v-.22h.43v-.19l1.36-.17.2-.37h.93v-.19h.71l.22-.39h.92l.24-.37h.46l.45-.52h.43l.46-.54h.47l.89-.91h.47l.91-.88,3.17-1.32v-.19l.69.13v-.2l.72.11v-.22l.65-.21v-.2l.71.13v-.21h.43v-.22l.71.13v-.22l1.36-.15v.5h.5v-.19h.43v-.24l.46.11v-.22h.47v-.19h.46v-.2h.47l.45-.32h.44l.23-.39h.93l.24-.39h.43v-.22h.71l2.75-1.27,1.77-1.15.47.11,2.16-1.75,1.34-.8v-.43l1.06.13,1.12-1.06h.46l.11-.54v-.21l.69.13v-.2l1.36-.19v-.2h.47v-.21h.46v-.22h.9l.24-.39,1.38-.15v-.21h.7l.19-.37h.48v.43l.66-.11.24-.34h.46l.43-.57.47.11.69-.73h.44l.69-.71h.47l1.6-1.39.67-.1v-.42l1.36-1,1.15-.65v-.43l.19-.13,1.17-.67.21-.37h.46l.21-.38,1.39-.16.21-.38h.48v-.22h.45V650h.45l.44-.33h.17l.39-.24h.47l.2-.38.47.1.2-.39h.49l.22-.36h.43v-.22h.69l.24-.39h.45l.72-.73.45.11.91-.89h.45l1.58-1.36h.45v-.22l.69-.3.24-.58,1.56-1v-.44l1.14-.64v-.41h.45v-.22l.48-.13v-.39l.47-.15V640l.44-.13v-.43l.67-.28.69-1,.88-.45.24-.35h.45l.22-.73.45.1.22-.39h.5l.19-.38h.45l.24-.37h.67l.93-.89h.48l.9-.86h.46v-.22l.45-.15V633h.47l.89-.86h.22v.71l.93-.26v-.43l1.12-.63v-.43l.91-.45v-.44h.71v-.41l1.79-1.14h.91l.24-.73h.9v-.22h.69l.22-.39.45.11v-.24h.7l.21-.39h.45l.46-.56.45.11.24-.39h.24l.21-.37h.46v-.19l.9-.26v-.41l4.32-2.81v-.43l.7-.28v-.43l.69-.29.77-.77.11.26h.43l.76,1,.43.31v.38l1.88,1.84V624l.69.56v.22h.46l1.85,2.16h.46l.93,1.21H700l.24.45.45.11.45.71.72.33.23.47h.46l.24.48.9.36.26.48.67.34v.22l1.36.67.28.45.89.39v.22l.93.37v.21l1.16.41.24.48h.43l.5.71h.19v.43l.93.8v.41l1.36,1.3,2.16,2.53h.48l.91,1.2.49.11,8.34,7.45.43.74.24.67,1.17,1.06v.41l.93.8c1,1.16,10.54,9.63,13.45,12.4s10.8,9,10.8,9l.48.73h.45l.24.48h.47l.46.73.93.39.21.46.93.41.24.45,1.4.67v.22h.46V680H759v.22l1.38.67v.23L768,687.4h.45l.93,1.19.48.1.23.48h.46l.47.71h.43l.24.48.69.32v.24h.48l.26.45,1.36.67.24.48.9.39v.21h.48v.22l1.36.69v.19l.71.13v.22l.91.39v.21l6.48,5H786l.95,1.23h.45L798,708.65l.69.35v.19l.69.13v.22l.7.13v.21l.9.18v.19l6.72,4.19v.22l1.36.67.24.47.93.39v.22l.93.36V717l.69.13v.22l.9.38v.2l1.17.43v.22l.32.1,1,.35s7,2.59,9.72,3.28,9.57,1.56,9.57,1.56v-.22l1.17.22v-.22l.88.2v-.22l.93.15v-.19l.67.13v-.22l.69.13v-.21l.71.12v-.21l.7.13v-.22h.45V723l.69.11V723h.91v-.19l2-.26.21-.37L846,722l.23-.37h.91v-.24h.71l.2-.36h.45l.48-.52h.47l.43-.54h.48l.65-.72h.45l1.82-1.55,2.16-1.27v-.46l.88-.47v-.41l.67-.31v-.43l.69-.3v-.41l.46-.11.21-.82.46-.11L859,712h.24l.43-1.19h.24v-.45h.21v-.43h.24v-.44h.24l.45-1.18h.22v-.63h.22v-.41h.23v-.63H862v1.86h.24l.21-1.45h.24v-.71h.22v-.84h.23v-.84h.24v-1h.24v-1.06h.24v-1.47H864ZM577.61,581.15h0Zm12.07,50.69.15.13h-.15Z"/></svg>