<svg id="레이어_1" data-name="레이어 1" xmlns="http://www.w3.org/2000/svg" viewBox="0 0 1080 1080"><defs><style>.cls-1{fill:#f0f0f0;}.cls-2{fill:#0090da;}.cls-3{fill:#a3ce4e;}.cls-4{fill:#00609f;}</style></defs><path class="cls-1" d="M515.53.57C217.62,14-13,266.4.57,564.37s265.91,528.47,563.86,515.07,528.53-266,515-563.89S813.54-13,515.53.57Z"/><path class="cls-2" d="M231.52,256V824H437.17c0-145.93,34-280.17,102.83-381.86C471.73,341.28,369.19,272.43,231.52,256Z"/><path class="cls-3" d="M540,442.14C608.83,543.83,642.83,678.07,642.83,824H848.48V256C710.81,272.43,608.27,341.28,540,442.14Z"/><path class="cls-4" d="M437.17,824H642.83c0-145.93-34-280.17-102.83-381.86C471.17,543.83,437.17,678.07,437.17,824Z"/></svg>