<svg id="레이어_1" data-name="레이어 1" xmlns="http://www.w3.org/2000/svg" viewBox="0 0 1080 1080"><defs><style>.cls-1{fill:#d4003b;}.cls-2{fill:#fff;}</style></defs><path class="cls-1" d="M515.53.57C217.62,14-13,266.4.57,564.37s265.91,528.47,563.86,515.07,528.53-266,515-563.89S813.54-13,515.53.57Z"/><path class="cls-2" d="M647.06,615.84c-7.63-14.86-34.45-3.31-48-15.83-3.75-3.31-11.71-10.54-15.77-22.88-3.86-11.69-9.72-21.08-19.54-28.69-17.47-13.7-58.84-34.43-56-62.4,1.29-12.48,16.35-15.05,22.5-24.23,3.74-5.25,4.26-12.48,8.67-17.39,5-5.67-2-5.67-6.86-6.07-10.41-.38-18.17,11-26.82,15.64-14.16,7.44-26.9,18-42.87,21.51-4.68,1-28.54,8.4-13,12.33,10.65,2.72,22.59,2,31.4,9.57,11.34,9.75,20.57,22.29,32,32.05,5.78,4.91,11.39,9.57,16.09,15.63,5.42,7,4.72,15.06,8.72,22.3,3.88,7,11.51.78,16.26,4.7,15.57,12.88-6.08,19.13-11.67,25.2-7.3,8-8.72,13.12-22.11,18.56-5.91,2.37-44.29,7-49,10.58s-2.25,4.67-1,6,7.82,3.54,10.75,3.73c16.13,1.56,65.72,10.93,75.9-1.75,6.94-8.78,17.24-9.8,28.67-6.64,8,2.14,24,.58,37.8-5.11,8-3.3,30.13-3.5,23.92-6.84"/><path class="cls-2" d="M686.36,682.71c-17.54-12.92-32.92-13.31-48.39-4.91h0a4.53,4.53,0,0,1-1.71,1c-.9.42-1.54.81-1.54.81-15.41,8.6-23.32,21.86-21.77,43.57,2.17,30.11,24.25,182,24.25,182l42.23-13.5s-3.9-24.61-8.71-54.72a224.27,224.27,0,0,0,43.12-18.17,210.62,210.62,0,0,0,38.1-27c23,20.15,41.85,36.75,41.85,36.75l33.79-28.74S710.64,700.29,686.36,682.71Zm8.26,101.63h0a112.49,112.49,0,0,1-30.46,11.75c-5.27-33.45-10-63.76-10.65-67.26-1.29-9-.65-12.52,2.55-14.46,3.11-1.76,6.54-.4,13.34,5.47,2.93,2.54,26,22.69,51.4,45A111.63,111.63,0,0,1,694.62,784.34Z"/><rect class="cls-2" x="516.73" y="694.45" width="43.6" height="216.38"/><path class="cls-2" d="M441,679.79h0a11.2,11.2,0,0,0-1.73-1,4.31,4.31,0,0,1-1.61-1c0,.2.07.2.07.2-15.5-8.59-30.82-8.19-48.42,4.72C365,700.3,247.87,799.4,247.87,799.4l33.8,28.74s18.78-16.4,41.8-36.35a221,221,0,0,0,38.26,27,206.2,206.2,0,0,0,43,18l-8.84,54.94,42.18,13.5s22.36-151.89,24.48-181.8C464.14,701.66,456.38,688.39,441,679.79Zm-19,49.05h0c-.51,3.5-5.42,33.81-10.75,67.26a111.67,111.67,0,0,1-30.52-12c-10.9-6.06-19.16-12.28-26.11-19.52,25.55-22.29,48.62-42.44,51.46-44.77,6.9-5.87,10.27-7.23,13.47-5.48S423.37,719.86,422,728.84Z"/><path class="cls-2" d="M540,205.18h0c-182,0-329.55,147.56-329.55,329.56a327.74,327.74,0,0,0,68.65,201.14l9-7.43a303.39,303.39,0,0,1-51.25-110c2.79.59,6.15,1.55,11.69,3.3,18.31,5.88,52.85,17.19,77.73,5.88,15.8-7.43,43.32-13.5,53.9-17.59,10-4.12,31.1,5.06,6.17-11.36h-.11a6.57,6.57,0,0,0-1.28-.58,12,12,0,0,0-2.57-.78C380,596.7,360,600.6,355.54,600a17.48,17.48,0,0,1-4-1.56c-10.85-5.87,35.43-42,37-51-13.29,1.4-24.24,9.8-36.13,15.05-14,6.07-29.29,6.27-44.25,6.46-17.12,0-30.42,13.31-45.46,19.38-7.87,3.31-20.79,6.25-29.5,11.89-.62-3.7-1.19-7.42-1.68-11.11A173.54,173.54,0,0,1,234,565.82c3.43-19.57,11.36-34.81,29-58.27,0,0,17.23-20.69,27.25-27.35,3.9-2.75,8.12-6.44,12.27-3.92C307,479,301.36,496,313.1,499c7.09,1.56.83,13.3,3.29,20.13,2.59,7.25-29.23,35.19-20.84,38.52,4.68,1.94,25.77-8.79,36.95-12.33,9.87-3.11,20.37-3.31,31.2-13.49a116.8,116.8,0,0,1,22.17-16.22c9-7.63,17.84-15.44,26.78-23.08,8.71-7.62,17.05-15.44,25.5-23.25,5.28-5.06,29.18-18.36,31.3-22.87,11.12-24,40.15-38.12,61.74-53.36,4-2.73,8.27-8.6,10.71-11.91s5-8.39,6.45-10c2.74-3.11,3.42-5.45,6.5-7,1.22-.63,6.11-.63,8.2,1.75,7,7.43,16.62,13.88,17,21.7.59,12.1,34.51,22.67,42.23,32.05a37.08,37.08,0,0,1,6.36,11.31,77.2,77.2,0,0,1-16.91-9c-3.43-2.54-11.4-2-15.48-2.54-11.72-2.17-9,3.3-2.53,9.95,6.63,7.05,14.34,12.92,20.4,20.55,7,8.6,6.34,15.64,8.23,26,2.08,11,8.64,20.55,14,30.3s5.08,20.15,8.1,30.69c3.28,10.54,12.25,19.37,19.7,27.19,6.33,6.61,20.77,22.88,28.65,19.33,8.39-3.5,18.79,6.65,21.93,3.73,3.18-2.75-8.39-16.25-4-20.33s23.7,2.32,27.67,14.66c4.48,14.46,4,15.64,3.31,26A26.86,26.86,0,0,1,734,624.63c-5.72,5.68-19,15.25-16.35,24.85,12.15-6.45,25.36-7,38.93-6.65,13.14.4,22.84-5.09,31.64-14.46,3.89-4.13,15.08-17.2,21.44-10.55,3.86,3.89-7.44,19.92,4.95,16.61,8.25-2.18,15.61-8.59,23.09-12.72a62.57,62.57,0,0,0,5.43-3.5A304.3,304.3,0,0,1,790.7,730l9,7.42a328.39,328.39,0,0,0,69.84-202.69C869.56,352.74,722,205.18,540,205.18Zm290.08,330h0c-27.71,5.86-36.23-18.22-59.28-33.46s-44.32-21.09-65.73-42.39c-8.59-8.6-10.79-23.26-19.34-32.25-11.38-12.14-18.33-15.45-33.79-21.51-27.13-10.54-50.43-18.36-73-37-3.81-3.1-12.77-7.23-21.13-8.79-3.58-.78-5.18-.2-6.39,1.18A156.05,156.05,0,0,0,542,375.43a46,46,0,0,1-5.86,7.42c-4.34,3.93-9.8,9-14,11.32-22.68,13.89-52.58,25.64-65.49,48.89-2.4,4.27-27.14,15.83-32.84,20.3-9,7.43-17.83,14.67-27.07,21.51-8.65,6.46-20.61,16.43-29.63,23.07A84.5,84.5,0,0,0,353,503.85c-10.63-2.17-19.56-10.38-28.7-15.83-11.72-7.43-10.83-8.2-14.53-10.37-3.23-1.76-4.83-2.92-6.08-3.5-8.72-5.11-9.23,0-21.59,7.61-10.31,6.26-22.19,16.8-31,25.21-7.07,6.65-14.26,13.69-21.64,20.92C240,368,375,241.74,540,241.74c163.36,0,297.26,123.91,310.17,281.45C845.12,529.84,838,533.38,830.07,535.14Z"/></svg>