<svg id="레이어_1" data-name="레이어 1" xmlns="http://www.w3.org/2000/svg" viewBox="0 0 1080 1080"><defs><style>.cls-1{fill:#2058aa;}.cls-2{fill:#fff;}</style></defs><path class="cls-1" d="M515.53.57C217.62,14-13,266.4.57,564.37s265.91,528.47,563.86,515.07,528.53-266,515-563.89S813.54-13,515.53.57Z"/><path class="cls-2" d="M695.88,548,532.6,711.22,369.33,548,532.6,384.68l157,157,90.83-90.83L543,231.87c-3.49-.11-6.89-.52-10.41-.52C357.75,231.35,216,373.09,216,548s141.75,316.6,316.6,316.6S849.21,722.8,849.21,548Z"/><polygon class="cls-2" points="665.27 201.52 534.86 201.52 534.77 201.52 802.21 441.62 863.93 379.9 864 379.93 665.27 201.52"/></svg>