<svg id="레이어_1" data-name="레이어 1" xmlns="http://www.w3.org/2000/svg" viewBox="0 0 1080 1080"><defs><style>.cls-1{fill:#503629;}.cls-2{fill:#fff;}</style></defs><path class="cls-1" d="M515.53.57C217.62,14-13,266.4.57,564.37s265.91,528.47,563.86,515.07,528.53-266,515-563.89S813.54-13,515.53.57Z"/><path class="cls-2" d="M233.58,462.26H188.42V466H202.9v74.69c0,22.29-6.37,28.65-20.27,28.65A9.44,9.44,0,0,1,172.21,561v-1.74c0-8.1-.58-13-7.81-13s-8.4,7.52-8.4,9.84c0,10.42,4.63,18.24,25.19,18.24,24.6,0,37.63-8.11,37.63-35.61V466h15.05Z"/><path class="cls-2" d="M239.37,556.63a8.88,8.88,0,0,0-9,9,7.9,7.9,0,0,0,2.6,6.08,9.08,9.08,0,0,0,12.74,0,8.32,8.32,0,0,0,2.61-6.08,8.53,8.53,0,0,0-8.69-8.68h-.29"/><path class="cls-2" d="M339.82,556.63a9.11,9.11,0,0,0-9,8.39h0v.29a8.17,8.17,0,0,0,2.89,6.08,9.08,9.08,0,0,0,12.74,0,7.88,7.88,0,0,0,2.61-6.08,9,9,0,0,0-2.61-6.37,8.35,8.35,0,0,0-6.08-2.6"/><path class="cls-2" d="M308.56,462.26H264V466h13v85.11a25.88,25.88,0,0,1-1.15,10.42,9.21,9.21,0,0,1-5.5,4.92,26.88,26.88,0,0,1-8.4,1.45v3.47h47.19v-3.47a30.53,30.53,0,0,1-9-1.16,8.56,8.56,0,0,1-5.5-4.92,14.8,14.8,0,0,1-1.16-7V525.36h11.87c34.16,0,43.72-13.6,43.72-31.84s-6.08-31.26-40.53-31.26M302.19,521h-9V466.6h8.1c26.34,0,32.71,10.71,32.71,28.08s-10.42,26.92-31.26,26.92"/><path class="cls-2" d="M490.06,561.26a16.51,16.51,0,0,1-.86-7.53V466h11.86v-3.47H473l-34.15,83.08a.62.62,0,0,1-.58.58c-.29,0-.58-.29-.87-.58,0,0-35.32-82.22-35.61-83.08H370.51V466h13.6v92.34a12.34,12.34,0,0,1-1.73,5.5,8.65,8.65,0,0,1-4.93,3.48,23.64,23.64,0,0,1-6.36.58v3.47h31v-3.47a16.82,16.82,0,0,1-5.5-.87,10.07,10.07,0,0,1-5.5-3.48,12.62,12.62,0,0,1-2-5.5l-.29-7.81V477.31h1.74s40.24,92.92,40.24,94.08h3.76l37.93-93.21h.86v75a36.52,36.52,0,0,1-.86,7.82,8.63,8.63,0,0,1-4.64,4.92,24.74,24.74,0,0,1-7.81,1.45v3.47h43.13v-3.47a26.51,26.51,0,0,1-8.1-1.45,10.16,10.16,0,0,1-4.93-5.5"/><path class="cls-2" d="M548.25,491.49c-23.16,0-37.63,15.06-37.63,41.69,0,39.08,30.39,41.4,37,41.4,13,0,37.63-8.11,37.63-42.27-.29-26.63-15.92-40.82-37-40.82M548,569.65c-17.37,0-20-8.68-20-36.18,0-21.42,1.44-37.63,20-37.63,20,0,20.26,16.79,20.26,35.89,0,28.08-4.92,37.92-20.26,37.92"/><path class="cls-2" d="M645.52,492.65c-13.9,0-17.95,8.11-22,16.5h-1.16s-2-11.87-2.61-15.63H592.83v4.05H607.3v54.14a23.78,23.78,0,0,1-1.73,11c-1.45,2.6-4.92,4-10.13,4h-2.32v4.92H637.7v-4.92h-2c-5.79,0-8.39-1.16-9.84-3.76a21.71,21.71,0,0,1-1.74-11.29V523.63c0-9.27,7.24-20.27,15.64-20.27,8.68,0,8.68,13.61,18.81,8.11,5.21-3.19,4.06-18.82-13-18.82"/><path class="cls-2" d="M823.55,563.29c-4.92,0-6.37-2.61-6.66-6.95V513.49a21.06,21.06,0,0,0-5.5-16.21c-4-4-12.16-6.37-23.74-6.37a41.18,41.18,0,0,0-24.6,6.08,14.69,14.69,0,0,0-6.95,12.45,6.59,6.59,0,0,0,2,5.5,7.83,7.83,0,0,0,4.92,1.74c4.34,0,6.94-2.32,7.81-8.11a15.2,15.2,0,0,1,3.48-9.26,17.86,17.86,0,0,1,22.58,1.16,19.69,19.69,0,0,1,3.18,11.29v13.6c-14.18,1.16-48.05,4.06-46.61,29.53a20.81,20.81,0,0,0,21.14,18.53,34.22,34.22,0,0,0,26-13,14.68,14.68,0,0,0,15.05,11.87c10.42,0,16.79-5.21,17.37-17.66h-2.6c-.58,5.79-4.06,8.69-7,8.69m-23.45-8.4v.87a28.56,28.56,0,0,1-18,9.26,12.28,12.28,0,0,1-12.73-11.87h0v-1.73c0-14.48,20-21.71,31-21.71Z"/><path class="cls-2" d="M915,562.71a22.93,22.93,0,0,1-2.9-11.58V515.81a25.2,25.2,0,0,0-2.6-13,20.31,20.31,0,0,0-7.82-7.81,28.28,28.28,0,0,0-11.87-2.61,27.68,27.68,0,0,0-25.47,15.06h-1.74l-2.9-14.19h-24v4h12.16v53.85a50,50,0,0,1-.87,9.26,6.66,6.66,0,0,1-4.63,4.92,17,17,0,0,1-6.66,1.16v4.92h38.5v-4.92a10.09,10.09,0,0,1-7.82-3.18,18.39,18.39,0,0,1-2-11V531.73a49.08,49.08,0,0,1,2.89-22.29,17.37,17.37,0,0,1,15.63-8.68,10.72,10.72,0,0,1,10.71,5.5,48.83,48.83,0,0,1,2.61,18.23V550a52.52,52.52,0,0,1,0,9.55,7.16,7.16,0,0,1-3.47,5.5,12.17,12.17,0,0,1-6.08,1.74v4.92H924v-4.92c-4.63-.58-7.53-1.74-9-4"/><path class="cls-2" d="M740.47,488.31a7.65,7.65,0,0,0-4.63,6.08c-.58,3.18-1.74,4.92-3.48,5.5a9,9,0,0,1-5.5-.29,35.11,35.11,0,0,0-25.18-8.4c-15.92-1.15-30.11,10.71-31.27,26.64v3.47c0,16.79,6.37,24.32,20.27,27.5a.58.58,0,1,1,0,1.16c-11.87,2-22.29,5.5-22.29,17.08a12.78,12.78,0,0,0,8.68,12.16,63.56,63.56,0,0,0,23.16,3.47c6.08,0,12.45.29,18.53.87A22.44,22.44,0,0,1,728.89,587a10.73,10.73,0,0,1,3.76,9,13.59,13.59,0,0,1-8.39,12.44,44.7,44.7,0,0,1-21.14,4.35,32.5,32.5,0,0,1-19.39-4.35,10.34,10.34,0,0,1-4.05-11,6.37,6.37,0,0,0-4.06-8.1h-.87a7.27,7.27,0,0,0-6.65,2.89,12.26,12.26,0,0,0-1.74,7.24,15.74,15.74,0,0,0,13,15,67.28,67.28,0,0,0,21.42,3.19,55.64,55.64,0,0,0,24.6-4.63c9.27-4.06,15.64-13,15.64-23.16a22.53,22.53,0,0,0-3.77-13.61c-7.81-10.71-18.81-9.26-43.71-10.42-11.87,0-14.18-2-14.18-5.5,0-5.5,4.34-7.53,21.42-10.13s33-9,33-29.53A33.07,33.07,0,0,0,730.62,506a18.91,18.91,0,0,0,9.85,0,12,12,0,0,0,6.94-5.5,9.26,9.26,0,0,0,1.45-7.24c-1.44-4.34-4.34-6.08-8.39-4.92m-38.5,57c-10.14,0-16.21-3.77-16.21-24.32,0-14.47,4.92-25.18,16.21-25.18,12.73,0,16.21,9.84,16.21,24.89-.29,21.42-6.95,24.61-16.21,24.61"/></svg>