<svg id="레이어_1" data-name="레이어 1" xmlns="http://www.w3.org/2000/svg" xmlns:xlink="http://www.w3.org/1999/xlink" viewBox="0 0 1080 1080"><defs><style>.cls-1{fill:#00326d;}.cls-2{fill:url(#무제_그라디언트_3);}.cls-3{fill:url(#무제_그라디언트_3-2);}.cls-4{fill:url(#무제_그라디언트_3-3);}</style><linearGradient id="무제_그라디언트_3" x1="388.6" y1="3562.4" x2="322.38" y2="3937.96" gradientTransform="matrix(1, 0, 0, -1, 0, 4382)" gradientUnits="userSpaceOnUse"><stop offset="0.15" stop-color="#54c2f0"/><stop offset="0.3" stop-color="#4fbcec"/><stop offset="0.51" stop-color="#3face2"/><stop offset="0.73" stop-color="#2691d0"/><stop offset="0.98" stop-color="#036bb8"/><stop offset="1" stop-color="#0068b6"/></linearGradient><linearGradient id="무제_그라디언트_3-2" x1="328.96" y1="3922.16" x2="701.3" y2="4057.69" xlink:href="#무제_그라디언트_3"/><linearGradient id="무제_그라디언트_3-3" x1="757.11" y1="3931.73" x2="691.12" y2="3557.51" xlink:href="#무제_그라디언트_3"/></defs><circle class="cls-1" cx="540" cy="540" r="540"/><path class="cls-2" d="M431.24,704.27A88.91,88.91,0,0,1,366,555a197.25,197.25,0,0,1-24-94.63c0-5.28.21-10.53.62-15.72-99.5,37-150.15,147.7-113.13,247.21S377.11,842,476.62,805A192.5,192.5,0,0,0,502,793.37V669.23A88.85,88.85,0,0,1,431.24,704.27Z"/><path class="cls-3" d="M431.24,526.41A89,89,0,0,1,460,531.17a95.88,95.88,0,1,1,167.16-92.88,192.59,192.59,0,0,1,110.34,6.35c-8.72-109.06-104.18-190.41-213.24-181.7S333.81,367.12,342.52,476.18A198,198,0,0,0,365.93,555,88.68,88.68,0,0,1,431.24,526.41Z"/><path class="cls-4" d="M671.76,433.06a192.69,192.69,0,0,0-44.56,5.23,96,96,0,0,1-7.06,92.88,88.92,88.92,0,1,1-42.06,138.11V793.37c92.82,51.54,209.85,18.07,261.39-74.75s18.07-209.85-74.75-261.39A192.26,192.26,0,0,0,671.76,433.06Z"/></svg>