<svg id="레이어_1" data-name="레이어 1" xmlns="http://www.w3.org/2000/svg" viewBox="0 0 1080 1080"><defs><style>.cls-1{fill:#1788c6;}.cls-2{fill:#fff;}</style></defs><circle class="cls-1" cx="540" cy="540" r="540"/><path class="cls-2" d="M776,318.12c-.56,7.6-1.21,15.39-2,23.59,0,3.32-1.7,5.13-5.1,5.45q-5.34,0-4.58-6.91,0-6.88-3.22-17.61-1.48-6.66-8.67-11.19-6.93-4.29-25.26-6.19-8.67-.94-34.92-1.43-26.51-.46-37.14-.47-3.47,0-3.47,4.77V431.7c-.34,3.66.82,5.48,3.47,5.48q11.64,0,41.12-.47,29,0,40.13-.48,17.83-1.2,24.28-7.39,5.19-6.45,8.17-6.44,3.47,0,3.47,4.05-.53,1.43-4.15,35.45-2.08,21-2.07,32.62a34.78,34.78,0,0,1-.5,6c-.33,2.23-1.72,3.33-4.19,3.33-3.3,0-4.78-1.42-4.44-4.28a89.48,89.48,0,0,0-2-17.62,23.75,23.75,0,0,0-7.66-12.62q-6.68-5-20.76-6.43-9.15-.94-34.36-1.43H654.57q-3.48,0-3,4.77v38.57q-.51,39.53,0,75.72,0,24.28,11.69,32.62,11.69,8.82,49.48,8.33,10.69,0,23.87-.95,13.68-.47,23.87-5,18.9-7.38,22.88-36,.5-4.53,2-6a5.76,5.76,0,0,1,3.72-1.43q4.49.5,4,8.81a255.59,255.59,0,0,1-2,27.14q-2,18.09-4.45,26.89-2.25,8.81-7.68,10.71-5.7,1.9-19.82,1.91-105-1.41-140.45-2.82-25.5.45-63.9,1.39-10.15,0-10.16-4.62-.51-3.93,7.88-3.93,11.81,0,18.21-1.91a14.68,14.68,0,0,0,10.58-9.29q3.19-6.67,4.18-17.64,2.46-33.63,2.46-104v-86q0-95.7-.84-103.31-.5-12.86-4.69-19.05-4.45-6.88-17-8.81a111.48,111.48,0,0,0-19.75-1.42q-8.65.48-8.65-4.39,0-4.15,11.13-4.16,46,.48,72.92,1.43c39.37,0,76.11-.13,110.54-.37A322.49,322.49,0,0,0,540,216c-178.94,0-324,145.06-324,324a322.78,322.78,0,0,0,88.58,222.47,17.75,17.75,0,0,0,.94-1.79q3.19-6.66,4.18-17.61,2.48-33.57,2.46-103.79v-86q0-95.83-.83-103.47-.51-12.87-4.7-19.07-4.44-6.92-17-8.82a111.31,111.31,0,0,0-19.74-1.43q-8.66.48-8.65-4.39,0-4.15,11.1-4.16,47.13.48,69.34,1.43,36.75-.48,71.06-1.43a347.19,347.19,0,0,1,48.6,3.34,115.76,115.76,0,0,1,44.41,17.63q11.6,6.9,22.7,23.82,11.12,17.63,11.6,43.11.5,26.69-13.57,52.65-15,26.68-53.05,56.46Q539.53,691.36,583,737.33q21.94,20.49,36.51,26.2,14.55,6,20.23,6.91a83.38,83.38,0,0,0,14.07,1.43c4.1,0,6.16,1.31,6.16,3.93q0,4.62-9.62,4.62H602.19q-20.72,0-32.32-2.31a72.15,72.15,0,0,1-21.71-6.72q-29.86-16-69.09-71.79-15.79-21.47-29.85-41.5Q434.91,638.54,429,632.34a12.11,12.11,0,0,0-9.12-3.58l-43.92-1c-2.8,0-4.19,1.35-4.19,4.06v6.67q-.53,70.86,2.7,104.48,1,11,4.91,17.65,3.7,7.38,14.76,9.29a180.27,180.27,0,0,0,24.59,1.87c4.09,0,6.15,1.32,6.15,3.94q0,4.65-10.11,4.65Q361,779.49,340.57,779l-18.84.4A322.8,322.8,0,0,0,540,864c178.94,0,324-145.06,324-324A322.76,322.76,0,0,0,776,318.12Z"/><path class="cls-2" d="M376.43,600.48a141.91,141.91,0,0,0,38.51,5q14.56,0,22.71-1.91a39.57,39.57,0,0,0,13.08-6.43q12.11-7.85,20.74-25.71Q480.1,553.8,480.6,524q0-26.43-7.16-43.33-7.65-17.62-20.23-27.39a70.61,70.61,0,0,0-24.69-14.52,89.62,89.62,0,0,0-25.43-4.05q-19,0-26.66,1.9c-3.47.81-5,3.1-4.68,6.91V591.91Q371.23,599.05,376.43,600.48Z"/></svg>