<svg id="레이어_1" data-name="레이어 1" xmlns="http://www.w3.org/2000/svg" viewBox="0 0 1080 1080"><defs><style>.cls-1{fill:#00688f;}.cls-2{fill:#f28b00;}.cls-3{fill:#fff;}</style></defs><circle class="cls-1" cx="540" cy="540" r="540"/><path class="cls-2" d="M717.49,334.61A109.19,109.19,0,1,0,826.68,443.79h0A109.19,109.19,0,0,0,717.49,334.61Zm0,160.87a51.71,51.71,0,1,1,51.71-51.71v0a51.69,51.69,0,0,1-51.69,51.69Z"/><path class="cls-3" d="M583,542.53A166.78,166.78,0,1,0,553.5,678.74l-40.41-47.18c-20.29,31.6-56.77,58.45-97.48,56.83a109.88,109.88,0,1,1,108.3-145.86H398.43A23.39,23.39,0,0,0,375,565.92v27.32H586.92V578.6A168.26,168.26,0,0,0,583,542.53Z"/></svg>