<svg id="레이어_1" data-name="레이어 1" xmlns="http://www.w3.org/2000/svg" viewBox="0 0 1080 1080"><defs><style>.cls-1{fill:#ee3124;}.cls-2{fill:#fff;}</style></defs><path class="cls-1" d="M515.53.57C217.62,14-13,266.4.57,564.37s265.91,528.47,563.86,515.07,528.53-266,515-563.89S813.54-13,515.53.57Z"/><polygon class="cls-2" points="837.7 604.96 707.26 604.96 707.26 439.8 663.6 439.8 663.6 640.2 864 640.2 837.7 604.96"/><polygon class="cls-2" points="216 640.2 263.86 640.2 302.54 586.02 366.43 586.02 366.43 550.78 327.7 550.78 380.1 477.38 380.1 640.2 423.76 640.2 423.76 439.8 359.06 439.8 216 640.2"/><path class="cls-2" d="M605.94,527.37a49.84,49.84,0,0,0,15.26-35.63c0-28.68-25.05-51.94-56-51.94H456.9V640.2H565.25c39.65,0,71.79-20,71.79-61.87C637,557.18,624.72,538.53,605.94,527.37ZM500.55,475h58a20.71,20.71,0,1,1,0,41.42h-58ZM565.25,605h-64.7V551.7h64.7a26.63,26.63,0,0,1,0,53.26Z"/></svg>