<svg id="레이어_1" data-name="레이어 1" xmlns="http://www.w3.org/2000/svg" viewBox="0 0 1080 1080"><defs><style>.cls-1{fill:#012169;}.cls-2{fill:#e31837;}.cls-3{fill:#fff;}</style></defs><path class="cls-1" d="M515.53.57C217.62,14-13,266.4.57,564.37s265.91,528.47,563.86,515.07,528.53-266,515-563.89S813.54-13,515.53.57Z"/><path class="cls-2" d="M538.85,748.17C660.11,644.23,830.45,543.18,924,506.8c-14.44-9.24-37-22.52-62.36-37C741,509.68,600.05,598,474.17,697.93c21.37,16.17,43.89,32.92,64.68,50.24Z"/><path class="cls-3" d="M483.41,465.8c-17.9-8.66-37.53-16.75-52.55-23.68-45.61,22.52-105.09,56.59-180.16,110.3,16.17,8.66,33.49,19.05,52,29.44C360.42,539.13,418.74,498.71,483.41,465.8Z"/><path class="cls-2" d="M591.39,416.14c-21.94-12.13-98.16-40.42-150.71-52.55-15.59,5.78-37.53,14.44-52.55,20.79,19.06,5.2,90.08,24.25,150.72,54.86C554.44,431.73,576.38,422.49,591.39,416.14Z"/><path class="cls-3" d="M333.28,408.63C265.71,439.81,194.69,482.54,156,507.37c13.86,6.36,27.72,11.55,46.77,20.79,85.46-57.74,152.45-93,179-104.51-19.06-6.93-37-11.55-48.5-15Z"/><path class="cls-2" d="M642.21,398.24c15.59-5.2,33.49-9.82,49.08-14.44-45-19.05-101.63-39.26-152.44-52-8.09,2.31-32.34,8.66-49.09,13.86C507.09,350.89,564.25,364.17,642.21,398.24ZM357.53,615.36c18.48,11,38.11,26,57.17,38.69,126.46-98.17,251.18-173.82,388-216.55-19.06-9.81-35.8-18.47-57.17-28.87C663.57,429.42,523.25,485.43,357.53,615.36Z"/></svg>