<svg id="레이어_1" data-name="레이어 1" xmlns="http://www.w3.org/2000/svg" viewBox="0 0 1080 1080"><defs><style>.cls-1{fill:#006d8a;}.cls-2{fill:#fff;}</style></defs><path class="cls-1" d="M515.53.57C217.62,14-13,266.4.57,564.37s265.91,528.47,563.86,515.07,528.53-266,515-563.89S813.54-13,515.53.57Z"/><path class="cls-2" d="M527.07,671.11h95.14v-83H444.07V741H346.54V406.5A67.5,67.5,0,0,1,414,339h30V256H414A150.43,150.43,0,0,0,263.54,406.43V824H527.07Z"/><path class="cls-2" d="M802.74,256H539.21V408.89H444.07v83H622.21V339h97.53V475.5c0,24.45-19.81,60.61-44.26,60.61,0,0,64.19,26.21,64.19,104.22S671.35,749.67,622.21,749.67V824s194.25-2.46,194.25-185.51c0-68.53-45.25-102.38-45.25-102.38s31.53-11.47,31.53-60.61Z"/></svg>