<svg id="레이어_1" data-name="레이어 1" xmlns="http://www.w3.org/2000/svg" viewBox="0 0 1080 1080"><defs><style>.cls-1{fill:#009eae;}.cls-2{fill:#fff;}.cls-3{fill:#fcc900;}</style></defs><path class="cls-1" d="M515.53.57C217.62,14-13,266.4.57,564.37s265.91,528.47,563.86,515.07,528.53-266,515-563.89S813.54-13,515.53.57Z"/><path class="cls-2" d="M503.88,538.81a50,50,0,0,0-14.63-35.67h0a50.33,50.33,0,0,0-35.5-14.4h-.43c-15.87,0-28.49,9.39-28.46,9.61-.64-4.62-5.63-8.82-10.73-8.87a10.84,10.84,0,0,0-10.84,10.71V612.84a10.79,10.79,0,0,0,21.57.07V579.42c8.59,7,17.56,9.79,28.08,9.88h.69a49.47,49.47,0,0,0,50.28-49.69Zm-50.31,29.35c-16.09-.18-28.58-12-28.74-29.13.16-17.1,12.66-28.92,28.78-29.09,16.55.26,28.47,11.65,28.71,29.14-.24,17.43-12.16,28.81-28.75,29.08"/><path class="cls-2" d="M750,501.79a45.17,45.17,0,0,0-32.13-13.05h-.39a45.13,45.13,0,0,0-32,13.06,44.62,44.62,0,0,0-13,31.73s0,44.33,0,44.33a10.78,10.78,0,0,0,21.56.06l0-44.53c.27-13.49,9.22-23,23.64-23.26,14.33.26,23.3,9.77,23.58,23.29v44.44a10.8,10.8,0,0,0,21.59.07V533.54h0A44.62,44.62,0,0,0,750,501.79"/><path class="cls-2" d="M642.68,503.49s-3.74-3.45-3.75-3.44a50.43,50.43,0,0,0-32.13-11.32h-.39A49.62,49.62,0,0,0,556.35,539v.14a49.63,49.63,0,0,0,50.09,50.26h1.36s16.93-.44,27.58-10.45l.36,1.47A10.77,10.77,0,0,0,657,577.92V538.46a50.42,50.42,0,0,0-14.3-35m-36,64.67C589.87,568,578.17,556,577.93,539c.24-16.94,11.94-28.88,28.76-29.09,16.78.21,28.5,12.15,28.73,29.15-.23,16.93-11.93,28.86-28.74,29.07"/><path class="cls-2" d="M161.58,467.63a10.79,10.79,0,0,0-21.57-.08s0,110.37,0,110.4a10.79,10.79,0,0,0,21.57.09c0-.06,0-110.41,0-110.41"/><path class="cls-2" d="M540.92,467.63a10.79,10.79,0,0,0-21.57-.08s0,110.37,0,110.4a10.79,10.79,0,0,0,21.57.09c0-.06,0-110.41,0-110.41"/><path class="cls-2" d="M196.39,468a14.19,14.19,0,1,0,14.19,14.18A14.18,14.18,0,0,0,196.39,468"/><path class="cls-2" d="M207.18,519.22a10.79,10.79,0,0,0-21.57-.08s0,58.78,0,58.81a10.79,10.79,0,0,0,21.58.1V519.22"/><path class="cls-2" d="M924.11,588.61c.27,0,.53,0,.81,0a11,11,0,0,0,11-10.22c.44-6.08-3.75-10.9-10.18-11.8-10.25-2.67-9.38-13-9.38-17.15V518H929a11,11,0,0,0,0-22H916.33V467.39a11,11,0,0,0-22,0V496H888.4a11,11,0,0,0,0,22h5.89v38.65c0,3.63,2.28,32,29.82,32"/><path class="cls-2" d="M272.92,496a11,11,0,1,1,0,22h-13v59.62a11,11,0,0,1-22.05,0V518H232a11,11,0,1,1,0-22h5.88c.16-3.1-.14-18,7-26.45,2.74-3.26,5.68-6.6,9.47-8.67,5.11-2.79,10.73-4,16.87-4.45a11,11,0,1,1,1.6,22c-4.2.29-8.69,3.43-10.27,6.5A21.72,21.72,0,0,0,259.92,496h13"/><path class="cls-3" d="M339.81,488.11c-26.51,0-47.66,21.91-47.71,48.74a9.83,9.83,0,0,0,9.82,9.82H377.7a9.83,9.83,0,0,0,9.82-9.82c0-26.83-21.19-48.73-47.71-48.74M313.36,527c2.42-11,14.36-20,26.45-20s22.55,8.62,26.45,20Z"/><path class="cls-3" d="M379.15,554.3c-3.9-2.89-11-2.07-13.73,1.67a31.46,31.46,0,0,1-25.6,12.69h0A31.42,31.42,0,0,1,314.21,556c-2.77-3.74-9.84-4.56-13.73-1.67a10.24,10.24,0,0,0-2,14.09,51.46,51.46,0,0,0,41.35,21h0a51.47,51.47,0,0,0,41.36-21,10.26,10.26,0,0,0-2-14.09"/><path class="cls-3" d="M824.57,488.11c-26.51,0-47.65,21.91-47.71,48.74a9.83,9.83,0,0,0,9.83,9.82h75.78a9.83,9.83,0,0,0,9.81-9.82c0-26.83-21.19-48.73-47.71-48.74M798.12,527c2.43-11,14.36-20,26.45-20s22.55,8.62,26.46,20Z"/><path class="cls-3" d="M863.91,554.3c-3.9-2.89-11-2.07-13.73,1.67a31.44,31.44,0,0,1-25.59,12.69h0A31.44,31.44,0,0,1,799,556c-2.77-3.74-9.84-4.56-13.73-1.67a10.26,10.26,0,0,0-2,14.09,51.5,51.5,0,0,0,41.36,21h0a51.46,51.46,0,0,0,41.35-21,10.25,10.25,0,0,0-2-14.09"/></svg>