<svg width="169" height="128" viewBox="0 0 169 128" fill="none" xmlns="http://www.w3.org/2000/svg">
<path d="M83.0161 26.5C74.0161 27 74.0161 21 74.0161 20.5C74.0161 16.5 77.0161 14.8333 78.5161 14.5C81.3161 14.1 82.0161 15 85.5161 15C88.0161 15 90.3494 12.6667 91.0161 11.5C92.5161 13 93.5161 15.5 92.0161 20.5C89.5161 26.5 86.0161 26.1667 83.0161 26.5Z" fill="white"/>
<path d="M45.5161 38C46.0161 26 57.0161 2 83.5161 2C111.516 2 121.516 27 121.516 38" stroke="white" stroke-width="3" stroke-linecap="round"/>
<path d="M46.516 32.5C44.016 32.6667 39.016 34.6 39.016 41C38.8493 43.1667 39.916 47.5 45.516 47.5" stroke="white" stroke-width="3"/>
<path d="M45.5161 45C46.3494 56.3333 55.1161 79 83.5161 79C114.516 79 122.016 51 122.016 45" stroke="white" stroke-width="3" stroke-linecap="round"/>
<path d="M121.016 33C123.516 33.5 128.516 36 128.516 40.5C128.516 43 128.016 47 122.016 47" stroke="white" stroke-width="3"/>
<circle cx="67.5161" cy="45" r="3.5" fill="white" stroke="white"/>
<circle cx="99.5161" cy="45" r="3.5" fill="white" stroke="white"/>
<path d="M75.5161 59C76.1828 60.8333 78.8161 64.5 84.0161 64.5C87.5161 64.5 91.5161 61.5 91.5161 59" stroke="white" stroke-width="2"/>
<path fill-rule="evenodd" clip-rule="evenodd" d="M13.5663 94L1 126.739H9.26733L11.2515 121.448H23.4871L25.4713 126.739H33.0772L20.8416 94H13.5663ZM17.204 103.59L13.5663 114.172H20.8416L19.0228 108.881L17.204 103.59Z" fill="white"/>
<path d="M1 126.739L0.533206 126.559L0.272513 127.239H1V126.739ZM13.5663 94V93.5H13.2227L13.0995 93.8208L13.5663 94ZM9.26733 126.739V127.239H9.61383L9.73549 126.914L9.26733 126.739ZM11.2515 121.448V120.948H10.905L10.7833 121.272L11.2515 121.448ZM23.4871 121.448L23.9553 121.272L23.8336 120.948H23.4871V121.448ZM25.4713 126.739L25.0031 126.914L25.1248 127.239H25.4713V126.739ZM33.0772 126.739V127.239H33.7979L33.5456 126.564L33.0772 126.739ZM20.8416 94L21.3099 93.825L21.1885 93.5H20.8416V94ZM13.5663 114.172L13.0935 114.01L12.8657 114.672H13.5663V114.172ZM17.204 103.59L17.6768 103.428L17.204 102.052L16.7311 103.428L17.204 103.59ZM20.8416 114.172V114.672H21.5422L21.3144 114.01L20.8416 114.172ZM1.46679 126.918L14.0331 94.1792L13.0995 93.8208L0.533206 126.559L1.46679 126.918ZM9.26733 126.239H1V127.239H9.26733V126.239ZM10.7833 121.272L8.79916 126.563L9.73549 126.914L11.7196 121.623L10.7833 121.272ZM23.4871 120.948H11.2515V121.948H23.4871V120.948ZM25.9395 126.563L23.9553 121.272L23.019 121.623L25.0031 126.914L25.9395 126.563ZM33.0772 126.239H25.4713V127.239H33.0772V126.239ZM20.3732 94.175L32.6089 126.914L33.5456 126.564L21.3099 93.825L20.3732 94.175ZM13.5663 94.5H20.8416V93.5H13.5663V94.5ZM14.0392 114.335L17.6768 103.753L16.7311 103.428L13.0935 114.01L14.0392 114.335ZM20.8416 113.672H13.5663V114.672H20.8416V113.672ZM18.5499 109.044L20.3687 114.335L21.3144 114.01L19.4956 108.719L18.5499 109.044ZM16.7311 103.753L18.5499 109.044L19.4956 108.719L17.6768 103.428L16.7311 103.753Z" fill="white"/>
<path fill-rule="evenodd" clip-rule="evenodd" d="M37.3762 94V126.739H56.8871C61.8475 126.739 65.1544 123.762 65.1544 117.81C65.1544 114.503 64.4931 109.873 60.5247 109.873C61.7373 109.432 64.1624 107.36 64.1624 102.598C64.3828 99.8422 63.2364 94.3307 56.8871 94.3307L37.3762 94ZM44.9822 100.945V119.463H54.5723C55.4541 119.463 57.2178 118.802 57.2178 116.156C57.2178 115.275 56.6887 113.511 54.5723 113.511H50.6039V106.566C52.6983 106.677 56.8871 106.236 56.8871 103.59C56.9973 102.708 56.2919 100.945 52.5881 100.945H44.9822Z" fill="white"/>
<path d="M37.3762 126.739H36.8762V127.239H37.3762V126.739ZM37.3762 94L37.3847 93.5001L36.8762 93.4915V94H37.3762ZM60.5247 109.873L60.3539 109.403L60.5247 110.373V109.873ZM64.1624 102.598L63.664 102.558L63.6624 102.578V102.598H64.1624ZM56.8871 94.3307L56.8786 94.8307H56.8871V94.3307ZM44.9822 119.463H44.4822V119.963H44.9822V119.463ZM44.9822 100.945V100.445H44.4822V100.945H44.9822ZM50.6039 113.511H50.1039V114.011H50.6039V113.511ZM50.6039 106.566L50.6302 106.067L50.1039 106.039V106.566H50.6039ZM56.8871 103.59L56.391 103.528L56.3871 103.559V103.59H56.8871ZM37.8762 126.739V94H36.8762V126.739H37.8762ZM56.8871 126.239H37.3762V127.239H56.8871V126.239ZM64.6544 117.81C64.6544 120.695 63.8543 122.788 62.5224 124.158C61.1917 125.527 59.2674 126.239 56.8871 126.239V127.239C59.4672 127.239 61.6765 126.463 63.2394 124.855C64.8011 123.249 65.6544 120.877 65.6544 117.81H64.6544ZM60.5247 110.373C61.4118 110.373 62.0871 110.629 62.6139 111.042C63.148 111.46 63.5584 112.063 63.8669 112.796C64.4885 114.272 64.6544 116.174 64.6544 117.81H65.6544C65.6544 116.139 65.4896 114.073 64.7885 112.407C64.4356 111.569 63.9366 110.808 63.2306 110.255C62.5173 109.696 61.6218 109.373 60.5247 109.373V110.373ZM63.6624 102.598C63.6624 107.179 61.3423 109.044 60.3539 109.403L60.6956 110.343C62.1323 109.821 64.6624 107.541 64.6624 102.598H63.6624ZM56.8871 94.8307C59.8872 94.8307 61.5997 96.1176 62.5618 97.6917C63.5449 99.3002 63.7683 101.254 63.664 102.558L64.6608 102.638C64.7769 101.186 64.5373 99.0064 63.415 97.1702C62.2717 95.2996 60.2364 93.8307 56.8871 93.8307V94.8307ZM37.3677 94.4999L56.8786 94.8306L56.8956 93.8308L37.3847 93.5001L37.3677 94.4999ZM45.4822 119.463V100.945H44.4822V119.463H45.4822ZM54.5723 118.963H44.9822V119.963H54.5723V118.963ZM56.7178 116.156C56.7178 117.358 56.3225 118.042 55.8912 118.43C55.4439 118.833 54.9069 118.963 54.5723 118.963V119.963C55.1195 119.963 55.9052 119.763 56.5602 119.174C57.2312 118.57 57.7178 117.6 57.7178 116.156H56.7178ZM54.5723 114.011C55.4675 114.011 55.9788 114.373 56.2829 114.795C56.6054 115.243 56.7178 115.796 56.7178 116.156H57.7178C57.7178 115.635 57.5656 114.865 57.0945 114.211C56.6049 113.531 55.7934 113.011 54.5723 113.011V114.011ZM50.6039 114.011H54.5723V113.011H50.6039V114.011ZM50.1039 106.566V113.511H51.1039V106.566H50.1039ZM56.3871 103.59C56.3871 104.571 55.6311 105.227 54.3758 105.636C53.1452 106.038 51.6411 106.12 50.6302 106.067L50.5777 107.066C51.6612 107.123 53.2987 107.04 54.686 106.587C56.0487 106.142 57.3871 105.255 57.3871 103.59H56.3871ZM52.5881 101.445C54.3678 101.445 55.3344 101.869 55.8373 102.312C56.3369 102.752 56.4259 103.249 56.391 103.528L57.3833 103.652C57.4586 103.05 57.25 102.224 56.4984 101.561C55.7502 100.902 54.5121 100.445 52.5881 100.445V101.445ZM44.9822 101.445H52.5881V100.445H44.9822V101.445ZM64.1624 103.098H64.4931V102.098H64.1624V103.098Z" fill="white"/>
<path fill-rule="evenodd" clip-rule="evenodd" d="M148.489 94L135.923 126.739H144.19L146.174 121.448H158.41L160.394 126.739H168L155.764 94H148.489ZM152.127 103.59L148.489 114.172H155.764L153.946 108.881L152.127 103.59Z" fill="white"/>
<path d="M135.923 126.739L135.456 126.559L135.195 127.239H135.923V126.739ZM148.489 94V93.5H148.145L148.022 93.8208L148.489 94ZM144.19 126.739V127.239H144.537L144.658 126.914L144.19 126.739ZM146.174 121.448V120.948H145.828L145.706 121.272L146.174 121.448ZM158.41 121.448L158.878 121.272L158.756 120.948H158.41V121.448ZM160.394 126.739L159.926 126.914L160.048 127.239H160.394V126.739ZM168 126.739V127.239H168.721L168.468 126.564L168 126.739ZM155.764 94L156.233 93.825L156.111 93.5H155.764V94ZM148.489 114.172L148.016 114.01L147.789 114.672H148.489V114.172ZM152.127 103.59L152.6 103.428L152.127 102.052L151.654 103.428L152.127 103.59ZM155.764 114.172V114.672H156.465L156.237 114.01L155.764 114.172ZM153.946 108.881L154.418 108.719L154.418 108.719L153.946 108.881ZM136.39 126.918L148.956 94.1792L148.022 93.8208L135.456 126.559L136.39 126.918ZM144.19 126.239H135.923V127.239H144.19V126.239ZM145.706 121.272L143.722 126.563L144.658 126.914L146.642 121.623L145.706 121.272ZM158.41 120.948H146.174V121.948H158.41V120.948ZM160.862 126.563L158.878 121.272L157.942 121.623L159.926 126.914L160.862 126.563ZM168 126.239H160.394V127.239H168V126.239ZM155.296 94.175L167.532 126.914L168.468 126.564L156.233 93.825L155.296 94.175ZM148.489 94.5H155.764V93.5H148.489V94.5ZM148.962 114.335L152.6 103.753L151.654 103.428L148.016 114.01L148.962 114.335ZM155.764 113.672H148.489V114.672H155.764V113.672ZM153.473 109.044L155.292 114.335L156.237 114.01L154.418 108.719L153.473 109.044ZM151.654 103.753L153.473 109.044L154.418 108.719L152.6 103.428L151.654 103.753Z" fill="white"/>
<path fill-rule="evenodd" clip-rule="evenodd" d="M104.838 94V126.739H124.349C129.309 126.739 132.616 123.762 132.616 117.81C132.616 114.503 131.954 109.873 127.986 109.873C129.199 109.432 131.624 107.36 131.624 102.598C131.844 99.8422 130.698 94.3307 124.349 94.3307L104.838 94ZM112.444 100.945V119.463H122.034C122.916 119.463 124.679 118.802 124.679 116.156C124.679 115.275 124.15 113.511 122.034 113.511H118.065V106.566C120.16 106.677 124.349 106.236 124.349 103.59C124.459 102.708 123.753 100.945 120.05 100.945H112.444Z" fill="white"/>
<path d="M104.838 126.739H104.338V127.239H104.838V126.739ZM104.838 94L104.846 93.5001L104.338 93.4915V94H104.838ZM127.986 109.873L127.815 109.403L127.986 110.373V109.873ZM131.624 102.598L131.125 102.558L131.124 102.578V102.598H131.624ZM124.349 94.3307L124.34 94.8307H124.349V94.3307ZM112.444 119.463H111.944V119.963H112.444V119.463ZM112.444 100.945V100.445H111.944V100.945H112.444ZM118.065 113.511H117.565V114.011H118.065V113.511ZM118.065 106.566L118.092 106.067L117.565 106.039V106.566H118.065ZM124.349 103.59L123.852 103.528L123.849 103.559V103.59H124.349ZM105.338 126.739V94H104.338V126.739H105.338ZM124.349 126.239H104.838V127.239H124.349V126.239ZM132.116 117.81C132.116 120.695 131.316 122.788 129.984 124.158C128.653 125.527 126.729 126.239 124.349 126.239V127.239C126.929 127.239 129.138 126.463 130.701 124.855C132.262 123.249 133.116 120.877 133.116 117.81H132.116ZM127.986 110.373C128.873 110.373 129.548 110.629 130.075 111.042C130.609 111.46 131.02 112.063 131.328 112.796C131.95 114.272 132.116 116.174 132.116 117.81H133.116C133.116 116.139 132.951 114.073 132.25 112.407C131.897 111.569 131.398 110.808 130.692 110.255C129.979 109.696 129.083 109.373 127.986 109.373V110.373ZM131.124 102.598C131.124 107.179 128.804 109.044 127.815 109.403L128.157 110.343C129.594 109.821 132.124 107.541 132.124 102.598H131.124ZM124.349 94.8307C127.349 94.8307 129.061 96.1176 130.023 97.6917C131.006 99.3002 131.23 101.254 131.125 102.558L132.122 102.638C132.238 101.186 131.999 99.0064 130.876 97.1702C129.733 95.2996 127.698 93.8307 124.349 93.8307V94.8307ZM104.829 94.4999L124.34 94.8306L124.357 93.8308L104.846 93.5001L104.829 94.4999ZM112.944 119.463V100.945H111.944V119.463H112.944ZM122.034 118.963H112.444V119.963H122.034V118.963ZM124.179 116.156C124.179 117.358 123.784 118.042 123.353 118.43C122.905 118.833 122.368 118.963 122.034 118.963V119.963C122.581 119.963 123.367 119.763 124.022 119.174C124.693 118.57 125.179 117.6 125.179 116.156H124.179ZM122.034 114.011C122.929 114.011 123.44 114.373 123.744 114.795C124.067 115.243 124.179 115.796 124.179 116.156H125.179C125.179 115.635 125.027 114.865 124.556 114.211C124.066 113.531 123.255 113.011 122.034 113.011V114.011ZM118.065 114.011H122.034V113.011H118.065V114.011ZM117.565 106.566V113.511H118.565V106.566H117.565ZM123.849 103.59C123.849 104.571 123.093 105.227 121.837 105.636C120.607 106.038 119.103 106.12 118.092 106.067L118.039 107.066C119.123 107.123 120.76 107.04 122.147 106.587C123.51 106.142 124.849 105.255 124.849 103.59H123.849ZM120.05 101.445C121.829 101.445 122.796 101.869 123.299 102.312C123.798 102.752 123.887 103.249 123.852 103.528L124.845 103.652C124.92 103.05 124.711 102.224 123.96 101.561C123.212 100.902 121.974 100.445 120.05 100.445V101.445ZM112.444 101.445H120.05V100.445H112.444V101.445ZM131.624 103.098H131.954V102.098H131.624V103.098Z" fill="white"/>
<path d="M71.1069 118.141L71.1069 94.3307H79.0436V118.141C79.0436 120.125 81.6891 120.455 84.3347 120.455C86.9802 120.455 89.6257 120.125 89.6257 118.141V94.3307H97.5624V118.141C97.5624 125.284 88.9644 127.29 84.6653 127.4C73.8186 127.4 71.1069 121.448 71.1069 118.141Z" fill="white"/>
</svg>
