<svg width="167" height="128" viewBox="0 0 167 128" fill="none" xmlns="http://www.w3.org/2000/svg">
<path d="M82.0161 26.5C73.0161 27 73.0161 21 73.0161 20.5C73.0161 16.5 76.0161 14.8333 77.5161 14.5C80.3161 14.1 81.0161 15 84.5161 15C87.0161 15 89.3494 12.6667 90.0161 11.5C91.5161 13 92.5161 15.5 91.0161 20.5C88.5161 26.5 85.0161 26.1667 82.0161 26.5Z" fill="#173C91"/>
<path d="M44.5161 38C45.0161 26 56.0161 2 82.5161 2C110.516 2 120.516 27 120.516 38" stroke="#173C91" stroke-width="3" stroke-linecap="round"/>
<path d="M45.516 32.5C43.016 32.6667 38.016 34.6 38.016 41C37.8493 43.1667 38.916 47.5 44.516 47.5" stroke="#173C91" stroke-width="3"/>
<path d="M44.5161 45C45.3494 56.3333 54.1161 79 82.5161 79C113.516 79 121.016 51 121.016 45" stroke="#173C91" stroke-width="3" stroke-linecap="round"/>
<path d="M120.016 33C122.516 33.5 127.516 36 127.516 40.5C127.516 43 127.016 47 121.016 47" stroke="#173C91" stroke-width="3"/>
<circle cx="66.5161" cy="45" r="3.5" fill="#173C91" stroke="#173C91"/>
<circle cx="98.5161" cy="45" r="3.5" fill="#173C91" stroke="#173C91"/>
<path d="M74.5161 59C75.1828 60.8333 77.8161 64.5 83.0161 64.5C86.5161 64.5 90.5161 61.5 90.5161 59" stroke="#173C91" stroke-width="2"/>
<path fill-rule="evenodd" clip-rule="evenodd" d="M12.5663 94L0 126.739H8.26733L10.2515 121.448H22.4871L24.4713 126.739H32.0772L19.8416 94H12.5663ZM16.204 103.59L12.5663 114.172H19.8416L18.0228 108.881L16.204 103.59Z" fill="#173C91"/>
<path fill-rule="evenodd" clip-rule="evenodd" d="M36.3762 94V126.739H55.8871C60.8475 126.739 64.1544 123.762 64.1544 117.81C64.1544 114.503 63.4931 109.873 59.5247 109.873C60.7373 109.432 63.1624 107.36 63.1624 102.598C63.3828 99.8422 62.2364 94.3307 55.8871 94.3307L36.3762 94ZM43.9822 100.945V119.463H53.5723C54.4541 119.463 56.2178 118.802 56.2178 116.156C56.2178 115.275 55.6887 113.511 53.5723 113.511H49.6039V106.566C51.6983 106.677 55.8871 106.236 55.8871 103.59C55.9973 102.708 55.2919 100.945 51.5881 100.945H43.9822Z" fill="#173C91"/>
<path fill-rule="evenodd" clip-rule="evenodd" d="M147.489 94L134.923 126.739H143.19L145.174 121.448H157.41L159.394 126.739H167L154.764 94H147.489ZM151.127 103.59L147.489 114.172H154.764L152.946 108.881L151.127 103.59Z" fill="#173C91"/>
<path fill-rule="evenodd" clip-rule="evenodd" d="M103.838 94V126.739H123.349C128.309 126.739 131.616 123.762 131.616 117.81C131.616 114.503 130.954 109.873 126.986 109.873C128.199 109.432 130.624 107.36 130.624 102.598C130.844 99.8422 129.698 94.3307 123.349 94.3307L103.838 94ZM111.444 100.945V119.463H121.034C121.916 119.463 123.679 118.802 123.679 116.156C123.679 115.275 123.15 113.511 121.034 113.511H117.065V106.566C119.16 106.677 123.349 106.236 123.349 103.59C123.459 102.708 122.753 100.945 119.05 100.945H111.444Z" fill="#173C91"/>
<path d="M70.1069 118.141L70.1069 94.3307H78.0436V118.141C78.0436 120.125 80.6891 120.455 83.3347 120.455C85.9802 120.455 88.6257 120.125 88.6257 118.141V94.3307H96.5624V118.141C96.5624 125.284 87.9644 127.29 83.6653 127.4C72.8186 127.4 70.1069 121.448 70.1069 118.141Z" fill="#173C91"/>
</svg>
