<svg width="167" height="34" viewBox="0 0 167 34" fill="none" xmlns="http://www.w3.org/2000/svg">
<path fill-rule="evenodd" clip-rule="evenodd" d="M12.5663 0L0 32.7386H8.26733L10.2515 27.4475H22.4871L24.4713 32.7386H32.0772L19.8416 0H12.5663ZM16.204 9.5901L12.5663 20.1723H19.8416L18.0228 14.8812L16.204 9.5901Z" fill="#173C91"/>
<path fill-rule="evenodd" clip-rule="evenodd" d="M36.3762 0V32.7386H55.8871C60.8475 32.7386 64.1544 29.7624 64.1544 23.8099C64.1544 20.503 63.4931 15.8733 59.5247 15.8733C60.7373 15.4323 63.1624 13.36 63.1624 8.59802C63.3828 5.84224 62.2364 0.330693 55.8871 0.330693L36.3762 0ZM43.9822 6.94455V25.4634H53.5723C54.4541 25.4634 56.2178 24.802 56.2178 22.1564C56.2178 21.2746 55.6887 19.5109 53.5723 19.5109H49.6039V12.5663C51.6983 12.6766 55.8871 12.2356 55.8871 9.5901C55.9973 8.70825 55.2919 6.94455 51.5881 6.94455H43.9822Z" fill="#173C91"/>
<path fill-rule="evenodd" clip-rule="evenodd" d="M147.489 0L134.923 32.7386H143.19L145.174 27.4475H157.41L159.394 32.7386H167L154.764 0H147.489ZM151.127 9.5901L147.489 20.1723H154.764L152.946 14.8812L151.127 9.5901Z" fill="#173C91"/>
<path fill-rule="evenodd" clip-rule="evenodd" d="M103.838 0V32.7386H123.349C128.309 32.7386 131.616 29.7624 131.616 23.8099C131.616 20.503 130.954 15.8733 126.986 15.8733C128.199 15.4323 130.624 13.36 130.624 8.59802C130.844 5.84224 129.698 0.330693 123.349 0.330693L103.838 0ZM111.444 6.94455V25.4634H121.034C121.916 25.4634 123.679 24.802 123.679 22.1564C123.679 21.2746 123.15 19.5109 121.034 19.5109H117.065V12.5663C119.16 12.6766 123.349 12.2356 123.349 9.5901C123.459 8.70825 122.753 6.94455 119.05 6.94455H111.444Z" fill="#173C91"/>
<path d="M70.1069 24.1406L70.1069 0.330688H78.0436V24.1406C78.0436 26.1247 80.6891 26.4554 83.3347 26.4554C85.9802 26.4554 88.6257 26.1247 88.6257 24.1406V0.330688H96.5624V24.1406C96.5624 31.2836 87.9644 33.2898 83.6653 33.4C72.8186 33.4 70.1069 27.4475 70.1069 24.1406Z" fill="#173C91"/>
</svg>
