<?xml version="1.0" standalone="no"?>
<!DOCTYPE svg PUBLIC "-//W3C//DTD SVG 20010904//EN"
 "http://www.w3.org/TR/2001/REC-SVG-20010904/DTD/svg10.dtd">
<svg version="1.0" xmlns="http://www.w3.org/2000/svg"
 width="512.000000pt" height="512.000000pt" viewBox="0 0 512.000000 512.000000"
 preserveAspectRatio="xMidYMid meet">

<g transform="translate(0.000000,512.000000) scale(0.100000,-0.100000)"
fill="#000000" stroke="none">
<path d="M2320 4679 c-814 -100 -1489 -634 -1766 -1397 -128 -350 -158 -773
-84 -1143 113 -557 445 -1048 920 -1360 245 -161 509 -265 815 -321 160 -30
534 -32 690 -5 466 82 849 279 1171 601 315 317 513 697 596 1146 18 97 22
153 22 360 0 207 -4 263 -22 360 -83 449 -281 829 -596 1146 -321 322 -709
521 -1166 599 -112 20 -468 28 -580 14z m1192 -1290 c51 -26 95 -84 109 -144
10 -44 8 -63 -13 -151 l-25 -102 55 -5 c123 -13 209 -112 199 -230 -6 -70 -39
-125 -99 -164 -38 -26 -51 -28 -153 -32 l-111 -3 -26 -103 -25 -103 132 -4
c126 -3 134 -4 181 -33 70 -43 108 -117 101 -198 -6 -70 -39 -125 -99 -164
-41 -28 -43 -28 -233 -31 l-191 -3 -48 -197 c-56 -226 -75 -277 -119 -320 -98
-95 -274 -82 -351 27 -15 21 -68 162 -128 343 -57 170 -105 308 -108 308 -3 0
-51 -138 -108 -308 -60 -181 -113 -322 -128 -343 -77 -109 -253 -122 -351 -27
-44 43 -63 94 -119 320 l-48 197 -191 3 c-190 3 -192 3 -233 31 -23 15 -54 46
-69 68 -63 95 -30 232 71 294 47 29 55 30 181 33 l132 4 -25 103 -26 103 -111
4 c-102 3 -115 5 -153 31 -174 115 -109 372 100 394 l55 5 -24 97 c-27 108
-25 154 10 216 64 114 224 140 323 52 19 -16 41 -42 49 -57 8 -15 66 -236 130
-491 64 -255 121 -482 127 -504 11 -40 11 -38 108 250 53 160 104 304 113 322
24 46 83 90 139 103 92 23 195 -24 237 -108 10 -21 60 -164 112 -319 51 -155
96 -277 100 -270 3 7 61 234 129 504 89 360 129 503 147 531 60 93 173 122
275 71z"/>
</g>
</svg>
